<?xml version="1.0" encoding="utf-8"?>
<!-- Generator: Adobe Illustrator 27.1.1, SVG Export Plug-In . SVG Version: 6.00 Build 0)  -->
<svg version="1.1" id="Layer_1" xmlns="http://www.w3.org/2000/svg" xmlns:xlink="http://www.w3.org/1999/xlink" x="0px" y="0px"
	 viewBox="0 0 64 64" style="enable-background:new 0 0 64 64;" xml:space="preserve">
<path d="M64,32c0,3.2-2.1,5.3-5.3,5.3H17.6l17.6,17.6c2.1,2.1,2.1,5.3,0,7.5c-1.1,1.1-2.7,1.6-3.7,1.6c-1.6,0-2.7-0.5-3.7-1.6
	L1.6,36.3C0.5,35.2,0,34.1,0,32.5l0-1.1c0-1.6,0.5-2.7,1.6-3.7L28.3,1.6c2.1-2.1,5.3-2.1,7.5,0c2.1,2.1,2.1,5.3,0,7.5L18.1,26.7
	h40.5C61.9,26.7,64,28.8,64,32z"/>
</svg>
