<?xml version="1.0" encoding="utf-8"?>
<!-- Generator: Adobe Illustrator 27.1.1, SVG Export Plug-In . SVG Version: 6.00 Build 0)  -->
<svg version="1.1" id="Layer_1" xmlns="http://www.w3.org/2000/svg" xmlns:xlink="http://www.w3.org/1999/xlink" x="0px" y="0px"
	 viewBox="0 0 64 64" style="enable-background:new 0 0 64 64;" xml:space="preserve">
<path d="M0,32c0-3.2,2.1-5.3,5.3-5.3h41.1L28.8,9.1c-2.1-2.1-2.1-5.3,0-7.5C29.9,0.5,31.5,0,32.5,0c1.6,0,2.7,0.5,3.7,1.6l26.1,26.1
	c1.1,1.1,1.6,2.1,1.6,3.7v1.1c0,1.6-0.5,2.7-1.6,3.7L35.7,62.4c-2.1,2.1-5.3,2.1-7.5,0c-2.1-2.1-2.1-5.3,0-7.5l17.6-17.6H5.3
	C2.1,37.3,0,35.2,0,32z"/>
</svg>
