<svg width="64" height="64" viewBox="0 0 64 64" fill="none" xmlns="http://www.w3.org/2000/svg">
<path d="M9.37259 54.6274C7.10985 52.3647 7.10985 49.3477 9.37259 47.085L38.4111 18.0464L13.5209 18.0464C10.504 18.0464 8.24122 15.7837 8.24122 12.7667C8.24122 11.2582 8.99547 9.74972 9.74972 8.99547C10.8811 7.8641 12.0125 7.48698 13.5209 7.48698L50.4791 7.48697C51.9876 7.48697 53.1189 7.8641 54.2503 8.99547L55.0045 9.74972C56.1359 10.8811 56.513 12.0125 56.513 13.5209L56.1359 50.8562C56.1359 53.8732 53.8732 56.1359 50.8562 56.1359C47.8392 56.1359 45.5765 53.8732 45.5765 50.8562V25.966L16.9151 54.6274C14.6523 56.8902 11.6353 56.8902 9.37259 54.6274Z" fill="#0B0B0B"/>
</svg>
