<?xml version="1.0" encoding="utf-8"?>
<!-- Generator: Adobe Illustrator 27.1.1, SVG Export Plug-In . SVG Version: 6.00 Build 0)  -->
<svg version="1.1" id="Layer_1" xmlns="http://www.w3.org/2000/svg" xmlns:xlink="http://www.w3.org/1999/xlink" x="0px" y="0px"
	 viewBox="0 0 64 64" style="enable-background:new 0 0 64 64;" xml:space="preserve">
<style type="text/css">
	.st0{fill:#0B0B0B;}
</style>
<path class="st0" d="M56.1,7.9C51.1,2.8,44.3,0,37.1,0c-7.2,0-13.9,2.8-19,7.9c-5.1,5.1-7.9,11.8-7.9,19c0,4.8,1.3,9.5,3.6,13.5
	L2,52.3c-2.7,2.7-2.7,7,0,9.7c2.7,2.7,7,2.7,9.7,0l11.9-11.9c4.1,2.4,8.7,3.6,13.5,3.6c7.2,0,13.9-2.8,19-7.9
	c5.1-5.1,7.9-11.8,7.9-19C64,19.7,61.2,12.9,56.1,7.9z M9.1,59.3c-1.2,1.2-3.2,1.2-4.4,0c-1.2-1.2-1.2-3.2,0-4.4L16,43.5
	c0.6,0.8,1.3,1.6,2.1,2.3c0.7,0.7,1.5,1.4,2.3,2.1L9.1,59.3z M37.1,50C24.4,50,14,39.6,14,26.9S24.4,3.8,37.1,3.8
	c12.8,0,23.1,10.4,23.1,23.1S49.9,50,37.1,50z M37.1,7.5c-7.9,0-14.4,6.4-14.4,14.4c0,4.3,1.9,8.3,5.2,11.1c1.1,0.9,1.8,2.2,1.8,3.6
	v5.4c0,2.4,2,4.4,4.4,4.4h5.9c2.4,0,4.4-2,4.4-4.4v-5.4c0-1.3,0.7-2.6,1.8-3.6c3.3-2.7,5.2-6.8,5.2-11.1
	C51.5,13.9,45.1,7.5,37.1,7.5z M40.7,41.9c0,0.3-0.3,0.6-0.6,0.6h-5.9c-0.3,0-0.6-0.3-0.6-0.6v-3.1h7.2V41.9z M43.9,30.1
	c-1.6,1.3-2.6,3.1-3,4.9H39v-9.8l3.2-3.2c0.7-0.7,0.7-1.9,0-2.7c-0.7-0.7-1.9-0.7-2.7,0l-2.4,2.4l-2.4-2.4c-0.7-0.7-1.9-0.7-2.7,0
	c-0.7,0.7-0.7,1.9,0,2.7l3.2,3.2V35h-1.9c-0.4-1.9-1.4-3.6-3-4.9c-2.5-2-3.9-5-3.9-8.2c0-5.9,4.8-10.6,10.6-10.6
	c5.9,0,10.6,4.8,10.6,10.6C47.7,25.1,46.3,28,43.9,30.1z"/>
</svg>
