<svg width="64" height="64" viewBox="0 0 64 64" fill="none" xmlns="http://www.w3.org/2000/svg">
<path d="M36.0465 11.7674C36.0465 12.8849 35.1407 13.7907 34.0233 13.7907C32.9058 13.7907 32 12.8849 32 11.7674C32 10.65 32.9058 9.74418 34.0233 9.74418C35.1407 9.74418 36.0465 10.65 36.0465 11.7674Z" fill="#0B0B0B"/>
<path d="M41.4419 13.7907C42.5593 13.7907 43.4651 12.8849 43.4651 11.7674C43.4651 10.65 42.5593 9.74418 41.4419 9.74418C40.3244 9.74418 39.4186 10.65 39.4186 11.7674C39.4186 12.8849 40.3244 13.7907 41.4419 13.7907Z" fill="#0B0B0B"/>
<path d="M50.8837 11.7674C50.8837 12.8849 49.9779 13.7907 48.8605 13.7907C47.7431 13.7907 46.8372 12.8849 46.8372 11.7674C46.8372 10.65 47.7431 9.74418 48.8605 9.74418C49.9779 9.74418 50.8837 10.65 50.8837 11.7674Z" fill="#0B0B0B"/>
<path fill-rule="evenodd" clip-rule="evenodd" d="M61 29.3023V13.1163C61 10.4321 59.9344 7.86121 58.038 5.96205C56.1388 4.06558 53.5679 3 50.8837 3H13.1163C7.5294 3 3 7.5294 3 13.1163V50.8837C3 53.5679 4.06558 56.1388 5.96205 58.038C7.86121 59.9344 10.4321 61 13.1163 61H29.3023C30.4192 61 31.3256 60.0936 31.3256 58.9767C31.3256 57.8599 30.4192 56.9535 29.3023 56.9535H13.1163C11.5058 56.9535 9.9627 56.3141 8.82428 55.1757C7.68586 54.0373 7.04651 52.4942 7.04651 50.8837V20.5349H56.9535V29.3023C56.9535 30.4192 57.8599 31.3256 58.9767 31.3256C60.0936 31.3256 61 30.4192 61 29.3023ZM56.9535 13.1163V16.4884H7.04651V13.1163C7.04651 9.76307 9.76307 7.04651 13.1163 7.04651H50.8837C52.4942 7.04651 54.0373 7.68586 55.1757 8.82428C56.3141 9.9627 56.9535 11.5058 56.9535 13.1163Z" fill="#0B0B0B"/>
<path fill-rule="evenodd" clip-rule="evenodd" d="M44.1395 27.2791C34.8353 27.2791 27.2791 34.8353 27.2791 44.1395C27.2791 53.4438 34.8353 61 44.1395 61C53.4438 61 61 53.4438 61 44.1395C61 34.8353 53.4438 27.2791 44.1395 27.2791ZM37.3272 33.2863C35.6737 34.3269 34.2743 35.7349 33.2438 37.3953H36.0652C36.3904 35.8859 36.819 34.502 37.3272 33.2863ZM31.3256 44.1395C31.3256 43.2142 31.4238 42.3117 31.6104 41.4419H35.4785C35.4087 42.319 35.3721 43.2202 35.3721 44.1395C35.3721 45.0589 35.4087 45.9601 35.4785 46.8372H31.6104C31.4238 45.9674 31.3256 45.0649 31.3256 44.1395ZM33.2438 50.8837C34.2743 52.5442 35.6737 53.9522 37.3272 54.9927C36.819 53.777 36.3904 52.3931 36.0652 50.8837H33.2438ZM40.2061 50.8837C40.6221 52.518 41.1895 53.9371 41.8762 55.0462C42.5506 56.1334 43.2412 56.9535 44.1395 56.9535C45.0379 56.9535 45.7285 56.1334 46.4029 55.0462C47.0896 53.9371 47.657 52.518 48.073 50.8837H40.2061ZM52.2139 50.8837C51.8887 52.3931 51.46 53.777 50.9518 54.9927C52.6054 53.9522 54.0048 52.5442 55.0353 50.8837H52.2139ZM56.6686 46.8372H52.8006C52.8704 45.9601 52.907 45.0589 52.907 44.1395C52.907 43.2202 52.8704 42.319 52.8006 41.4419H56.6686C56.8552 42.3117 56.9535 43.2142 56.9535 44.1395C56.9535 45.0649 56.8552 45.9674 56.6686 46.8372ZM48.7438 46.8372H39.5353C39.4585 45.965 39.4186 45.0627 39.4186 44.1395C39.4186 43.2163 39.4585 42.3141 39.5353 41.4419H48.7438C48.8205 42.3141 48.8605 43.2163 48.8605 44.1395C48.8605 45.0627 48.8205 45.965 48.7438 46.8372ZM52.2139 37.3953H55.0353C54.0048 35.7349 52.6054 34.3269 50.9518 33.2863C51.46 34.502 51.8887 35.8859 52.2139 37.3953ZM40.2061 37.3953H48.073C47.657 35.7611 47.0896 34.342 46.4029 33.2328C45.7285 32.1457 45.0379 31.3256 44.1395 31.3256C43.2412 31.3256 42.5506 32.1457 41.8762 33.2328C41.1895 34.342 40.6221 35.7611 40.2061 37.3953Z" fill="#0B0B0B"/>
</svg>
