<svg width="64" height="64" viewBox="0 0 64 64" fill="none" xmlns="http://www.w3.org/2000/svg">
<path d="M30 47.5116V31.3256C30 30.2087 30.896 29.3023 32 29.3023C33.104 29.3023 34 30.2087 34 31.3256V47.5116C34 48.6285 33.104 49.5349 32 49.5349C30.896 49.5349 30 48.6285 30 47.5116Z" fill="#0B0B0B"/>
<path fill-rule="evenodd" clip-rule="evenodd" d="M35.3333 7.04651H28.6667V5.02326C28.6667 3.90642 27.7707 3 26.6667 3C25.5627 3 24.6667 3.90642 24.6667 5.02326V7.71839C21.5347 9.03958 19.3333 12.1666 19.3333 15.814V19.8605C19.3333 20.1705 19.4024 20.4643 19.5257 20.727C19.0261 21.1116 18.55 21.5319 18.1013 21.9862C16.8693 23.2313 15.8907 24.6853 15.1989 26.2658L10.5947 23.0033C9.69066 22.3612 8.44266 22.5851 7.808 23.4996C7.176 24.4141 7.39466 25.6767 8.29866 26.3187L14.0877 30.4167C14.0295 30.9399 14 31.4685 14 32V38.0698H8C6.896 38.0698 6 38.9762 6 40.093C6 41.2099 6.896 42.1163 8 42.1163H14V46.8372C14 47.784 14.0937 48.7212 14.2761 49.636L8.29866 53.8673C7.39466 54.5094 7.176 55.7719 7.808 56.6864C8.44266 57.6009 9.69066 57.8248 10.5947 57.1828L15.686 53.5751C16.3244 54.7691 17.1349 55.8743 18.1013 56.851C20.7253 59.5082 24.288 61 28 61H36C39.712 61 43.2747 59.5082 45.8987 56.851C46.8651 55.8743 47.6756 54.7691 48.314 53.5751L53.4053 57.1828C54.3093 57.8248 55.5573 57.6009 56.192 56.6864C56.824 55.7719 56.6053 54.5094 55.7013 53.8673L49.7239 49.636C49.9063 48.7212 50 47.784 50 46.8372V42.1163H56C57.104 42.1163 58 41.2099 58 40.093C58 38.9762 57.104 38.0698 56 38.0698H50V32C50 31.4685 49.9705 30.94 49.9123 30.4167L55.7013 26.3187C56.6053 25.6767 56.824 24.4141 56.192 23.4996C55.5573 22.5851 54.3093 22.3612 53.4053 23.0033L48.8011 26.2658C48.1093 24.6853 47.1307 23.2313 45.8987 21.9862C45.45 21.5319 44.9739 21.1116 44.4742 20.727C44.5976 20.4643 44.6667 20.1705 44.6667 19.8605V15.814C44.6667 12.1666 42.4653 9.03959 39.3333 7.71839V5.02326C39.3333 3.90642 38.4373 3 37.3333 3C36.2293 3 35.3333 3.90642 35.3333 5.02326V7.04651ZM18 46.8372V32C18 29.3158 19.0533 26.7449 20.928 24.8458C22.8053 22.9493 25.3467 21.8837 28 21.8837H36C38.6533 21.8837 41.1947 22.9493 43.072 24.8458C44.9467 26.7449 46 29.3158 46 32V46.8372C46 49.5214 44.9467 52.0923 43.072 53.9914C41.1947 55.8879 38.6533 56.9535 36 56.9535H28C25.3467 56.9535 22.8053 55.8879 20.928 53.9914C19.0533 52.0923 18 49.5214 18 46.8372ZM23.3333 15.814V18.6472C24.8185 18.116 26.3953 17.8372 28 17.8372H36C37.6047 17.8372 39.1815 18.116 40.6667 18.6472V15.814C40.6667 13.2053 38.5787 11.093 36 11.093H28C25.4213 11.093 23.3333 13.2053 23.3333 15.814Z" fill="#0B0B0B"/>
</svg>
