<svg width="64" height="64" viewBox="0 0 64 64" fill="none" xmlns="http://www.w3.org/2000/svg">
<path d="M27.8936 26.4629H47.7314C48.7671 26.4629 49.6064 25.623 49.6064 24.5879C49.6064 23.5522 48.7671 22.7129 47.7314 22.7129H27.8936C26.8579 22.7129 26.0186 23.5522 26.0186 24.5879C26.0186 25.623 26.8579 26.4629 27.8936 26.4629Z" fill="#0B0B0B"/>
<path d="M17.543 28.6782C17.0342 28.6782 16.5249 28.4849 16.1372 28.0972L14.314 26.2739C13.582 25.5415 13.582 24.3545 14.314 23.6221C15.0464 22.8901 16.2334 22.8901 16.9658 23.6221L17.543 24.1992L20.6973 21.0454C21.4292 20.313 22.6167 20.313 23.3486 21.0454C24.0811 21.7773 24.0811 22.9648 23.3486 23.6968L18.9487 28.0972C18.561 28.4849 18.0518 28.6782 17.543 28.6782Z" fill="#0B0B0B"/>
<path d="M27.8511 39.7783H47.6895C48.7246 39.7783 49.5645 38.9385 49.5645 37.9033C49.5645 36.8677 48.7246 36.0283 47.6895 36.0283H27.8511C26.8159 36.0283 25.9761 36.8677 25.9761 37.9033C25.9761 38.9385 26.8159 39.7783 27.8511 39.7783Z" fill="#0B0B0B"/>
<path d="M17.501 41.9946C16.9697 41.9946 16.4707 41.7881 16.0952 41.4126L14.272 39.5894C13.5396 38.8569 13.5396 37.6699 14.272 36.9375C15.0044 36.2056 16.1914 36.2056 16.9233 36.9375L17.501 37.5146L20.6553 34.3608C21.3872 33.6284 22.5747 33.6284 23.3066 34.3608C24.0391 35.0928 24.0391 36.2803 23.3066 37.0122L18.9063 41.4126C18.5332 41.7871 18.0337 41.9941 17.5024 41.9946H17.501Z" fill="#0B0B0B"/>
<path d="M47.9678 49.2114H28.1299C27.0942 49.2114 26.2549 50.0508 26.2549 51.0864C26.2549 52.1221 27.0942 52.9614 28.1299 52.9614H47.9678C49.0034 52.9614 49.8428 52.1221 49.8428 51.0864C49.8428 50.0508 49.0034 49.2114 47.9678 49.2114Z" fill="#0B0B0B"/>
<path d="M17.7793 50.6982L20.9336 47.5439C21.6655 46.8115 22.853 46.8115 23.585 47.5439C24.3174 48.2764 24.3174 49.4634 23.585 50.1958L19.1846 54.5957C18.7974 54.9834 18.2881 55.1772 17.7793 55.1772C17.27 55.1772 16.7612 54.9834 16.3735 54.5957L14.5503 52.7729C13.8179 52.0405 13.8179 50.853 14.5503 50.1211C15.2827 49.3887 16.4692 49.3887 17.2017 50.1211L17.7793 50.6982Z" fill="#0B0B0B"/>
<path fill-rule="evenodd" clip-rule="evenodd" d="M49.8413 5.94043H42.543C42.3491 4.27051 40.9263 2.97021 39.2051 2.97021H37.144C35.9985 1.13916 33.9849 0 31.7798 0C29.5757 0 27.5615 1.13916 26.4136 2.97021H24.354C22.6328 2.97021 21.21 4.27051 21.0161 5.94043H13.7241C9.46484 5.94043 6 9.40576 6 13.6646V56.2764C6 60.5352 9.46484 64 13.7241 64H49.8413C54.1001 64 57.5654 60.5352 57.5654 56.2764V13.6646C57.5654 9.40527 54.1006 5.94043 49.8413 5.94043ZM24.7437 6.72021H27.2861C28.2085 6.72021 29.0391 6.17236 29.4019 5.32422C29.811 4.36768 30.7446 3.75 31.7798 3.75C32.8145 3.75 33.7466 4.3667 34.1533 5.3208C34.5156 6.1709 35.3467 6.72021 36.2705 6.72021H38.8154V11.8809H24.7437V6.72021ZM53.8154 56.2759C53.8154 58.4673 52.0327 60.25 49.8413 60.25H13.7241C11.5327 60.25 9.75 58.4673 9.75 56.2759V13.6646C9.75 11.4731 11.5327 9.69043 13.7241 9.69043H20.9937V12.271C20.9937 14.1235 22.501 15.6309 24.354 15.6309H39.2051C41.0581 15.6309 42.5654 14.1235 42.5654 12.271V9.69043H49.8413C52.0327 9.69043 53.8154 11.4731 53.8154 13.6646V56.2759Z" fill="#0B0B0B"/>
</svg>
