<?xml version="1.0" encoding="utf-8"?>
<!-- Generator: Adobe Illustrator 27.1.1, SVG Export Plug-In . SVG Version: 6.00 Build 0)  -->
<svg version="1.1" id="Layer_1" xmlns="http://www.w3.org/2000/svg" xmlns:xlink="http://www.w3.org/1999/xlink" x="0px" y="0px"
	 viewBox="0 0 64 64" style="enable-background:new 0 0 64 64;" xml:space="preserve">
<style type="text/css">
	.st0{fill:#0B0B0B;}
</style>
<path class="st0" d="M0,25C2.6,12.5,12.5,2.6,25,0c1.2-0.2,2.4,0.5,2.6,1.7c0.2,1.2-0.5,2.4-1.7,2.6C15.1,6.6,6.6,15.1,4.4,25.9
	c-0.2,1.2-1.4,2-2.6,1.7C0.6,27.4-0.2,26.2,0,25z M25.9,59.6C15.1,57.4,6.6,48.9,4.4,38.1c-0.2-1.2-1.4-2-2.6-1.7
	c-1.2,0.2-2,1.4-1.7,2.6c2.5,12.5,12.4,22.4,25,25c1.2,0.2,2.4-0.5,2.6-1.7C27.9,61,27.1,59.8,25.9,59.6z M32,53.6
	c-11.9,0-21.6-9.7-21.6-21.6S20.1,10.4,32,10.4S53.6,20.1,53.6,32S43.9,53.6,32,53.6z M43,28.3c0.1,1.2,0.2,2.5,0.2,3.7
	c0,1.3-0.1,2.5-0.2,3.7l5.7,0c0.3-1.2,0.4-2.4,0.4-3.7c0-1.3-0.1-2.5-0.4-3.7L43,28.3z M40.1,16.9c0.9,1.9,1.7,4.3,2.2,6.9l4.7,0
	C45.4,20.9,43,18.5,40.1,16.9z M26.2,23.8l11.6,0c-0.6-2.5-1.4-4.6-2.4-6.2c-1-1.6-2.1-2.7-3.4-2.7s-2.4,1.1-3.4,2.7
	C27.6,19.2,26.8,21.3,26.2,23.8z M21,35.7c-0.1-1.2-0.2-2.4-0.2-3.7c0-1.3,0.1-2.5,0.2-3.7l-5.7,0c-0.3,1.2-0.4,2.5-0.4,3.8
	c0,1.3,0.1,2.5,0.4,3.7L21,35.7z M23.9,47.1c-0.9-1.9-1.7-4.3-2.3-6.9l-4.7,0C18.5,43.1,21,45.5,23.9,47.1z M23.9,16.9
	c-2.9,1.6-5.3,4-6.9,6.8l4.7,0C22.2,21.2,22.9,18.9,23.9,16.9z M37.8,40.2l-11.6,0c0.6,2.5,1.4,4.6,2.4,6.3c1,1.6,2.1,2.7,3.4,2.7
	s2.4-1.1,3.4-2.7C36.4,44.8,37.2,42.7,37.8,40.2z M38.7,32c0-1.3-0.1-2.5-0.2-3.7l-13,0c-0.1,1.2-0.2,2.5-0.2,3.7
	c0,1.3,0.1,2.5,0.2,3.7l13.1,0C38.6,34.5,38.7,33.3,38.7,32z M47,40.2l-4.7,0c-0.5,2.6-1.3,5-2.2,6.9C43,45.5,45.4,43.1,47,40.2z
	 M38.1,4.4c10.8,2.2,19.3,10.7,21.5,21.5c0.2,1.2,1.4,2,2.6,1.7c1.2-0.2,2-1.4,1.7-2.6C61.4,12.5,51.5,2.6,39,0
	c-1.2-0.2-2.4,0.5-2.6,1.7C36.1,3,36.9,4.2,38.1,4.4z M62.2,36.4c-1.2-0.2-2.4,0.5-2.6,1.7c-2.2,10.8-10.7,19.3-21.5,21.5
	c-1.2,0.2-2,1.4-1.7,2.6c0.2,1.2,1.4,2,2.6,1.7c12.5-2.5,22.4-12.4,25-25C64.2,37.8,63.4,36.6,62.2,36.4z"/>
</svg>
