<?xml version="1.0" encoding="utf-8"?>
<!-- Generator: Adobe Illustrator 27.1.1, SVG Export Plug-In . SVG Version: 6.00 Build 0)  -->
<svg version="1.1" id="Layer_1" xmlns="http://www.w3.org/2000/svg" xmlns:xlink="http://www.w3.org/1999/xlink" x="0px" y="0px"
	 viewBox="0 0 64 64" style="enable-background:new 0 0 64 64;" xml:space="preserve">
<style type="text/css">
	.st0{fill:#0B0B0B;}
</style>
<path class="st0" d="M30.5,28.3H14.1c-1.2,0-2.2-1-2.2-2.2c0-1.2,1-2.2,2.2-2.2h16.4c1.2,0,2.2,1,2.2,2.2
	C32.7,27.3,31.7,28.3,30.5,28.3z M14.1,35.7c-1.2,0-2.2,1-2.2,2.2s1,2.2,2.2,2.2H29c1.2,0,2.2-1,2.2-2.2s-1-2.2-2.2-2.2H14.1z
	 M60.2,48.6c1.3,1.3,2,3,2,4.7c0,1.8-0.7,3.5-2,4.7c-0.7,0.7-1.4,1.4-2.1,2.1c-1.3,1.3-3,2-4.7,2c-1.8,0-3.5-0.7-4.7-2L37.9,49.4
	c-0.3-0.3-0.5-0.7-0.6-1.1l-2.1-10.5c-0.1-0.7,0.1-1.5,0.6-2c0.5-0.5,1.3-0.8,2-0.6l10.5,2.1c0.4,0.1,0.8,0.3,1.1,0.6L60.2,48.6z
	 M57.7,53.3c0-0.6-0.2-1.2-0.7-1.6L46.8,41.5l-6.6-1.3l1.3,6.6L51.8,57c0.4,0.4,1,0.7,1.6,0.7c0.6,0,1.2-0.2,1.6-0.7l2.1-2.1
	C57.5,54.5,57.7,53.9,57.7,53.3z M46.9,23.8h-7.4c-1.2,0-2.2,1-2.2,2.2c0,1.2,1,2.2,2.2,2.2h7.4c1.2,0,2.2-1,2.2-2.2
	C49.1,24.8,48.1,23.8,46.9,23.8z M49.1,14.1c0-1.2-1-2.2-2.2-2.2H14.1c-1.2,0-2.2,1-2.2,2.2c0,1.2,1,2.2,2.2,2.2h32.7
	C48.1,16.4,49.1,15.4,49.1,14.1z M60.7,3.3C58.6,1.2,55.8,0,52.8,0H11.2C5,0,0,5,0,11.2v41.7c0,3,1.2,5.8,3.3,7.9
	c2.1,2.1,4.9,3.3,7.9,3.3h29.8c1.2,0,2.2-1,2.2-2.2c0-1.2-1-2.2-2.2-2.2H11.2c-1.8,0-3.5-0.7-4.7-2c-1.3-1.3-2-3-2-4.7V11.2
	c0-3.7,3-6.7,6.7-6.7h41.7c1.8,0,3.5,0.7,4.7,2c1.3,1.3,2,3,2,4.7v29.8c0,1.2,1,2.2,2.2,2.2c1.2,0,2.2-1,2.2-2.2V11.2
	C64,8.2,62.8,5.4,60.7,3.3z"/>
</svg>
