<svg width="64" height="64" viewBox="0 0 64 64" fill="none" xmlns="http://www.w3.org/2000/svg">
<path fill-rule="evenodd" clip-rule="evenodd" d="M32.458 24.3697L27.746 38.5057C27.3967 39.5537 27.962 40.687 29.01 41.0364C30.058 41.3857 31.1913 40.8177 31.5407 39.7724L36.2527 25.6337C36.602 24.5857 36.0367 23.4524 34.9887 23.103C33.9407 22.7537 32.8073 23.3217 32.458 24.3697Z" fill="#0B0B0B"/>
<path fill-rule="evenodd" clip-rule="evenodd" d="M37.8713 28.7724L41.17 32.071L37.8713 35.3697C37.0927 36.1484 37.0927 37.4177 37.8713 38.1964C38.6527 38.9777 39.9193 38.9777 40.7007 38.1964L45.4127 33.4844C46.194 32.703 46.194 31.4364 45.4127 30.655L40.7007 25.943C39.9193 25.1617 38.6527 25.1617 37.8713 25.943C37.0927 26.7244 37.0927 27.991 37.8713 28.7724Z" fill="#0B0B0B"/>
<path fill-rule="evenodd" clip-rule="evenodd" d="M23.298 25.943L18.586 30.655C17.8047 31.4364 17.8047 32.703 18.586 33.4844L23.298 38.1964C24.0793 38.9777 25.346 38.9777 26.1273 38.1964C26.906 37.4177 26.906 36.1484 26.1273 35.3697L22.8287 32.071L26.1273 28.7724C26.906 27.991 26.906 26.7244 26.1273 25.943C25.346 25.1617 24.0793 25.1617 23.298 25.943Z" fill="#0B0B0B"/>
</svg>
