<svg width="64" height="64" viewBox="0 0 64 64" fill="none" xmlns="http://www.w3.org/2000/svg">
<path d="M33.4527 26.4956L26.3085 48.3448C25.9215 49.5374 26.5526 50.8271 27.7224 51.2247C28.8923 51.6192 30.1574 50.9758 30.5473 49.7832L37.6915 27.934C38.0785 26.7414 37.4474 25.4517 36.2776 25.0542C35.1077 24.6597 33.8426 25.303 33.4527 26.4956Z" fill="#0B0B0B"/>
<path d="M39.6502 32.4647L45.2138 38.1394L39.6502 43.8141C38.778 44.7002 38.778 46.1447 39.6502 47.0308C40.5194 47.92 41.9364 47.92 42.8056 47.0308L49.9498 39.7477C50.822 38.8586 50.822 37.4202 49.9498 36.5311L42.8056 29.248C41.9364 28.3588 40.5194 28.3588 39.6502 29.248C38.778 30.1341 38.778 31.5786 39.6502 32.4647Z" fill="#0B0B0B"/>
<path d="M14.0502 36.5311L21.1944 29.248C22.0636 28.3588 23.4806 28.3588 24.3498 29.248C25.222 30.1341 25.222 31.5786 24.3498 32.4647L18.7862 38.1394L24.3498 43.8141C25.222 44.7002 25.222 46.1447 24.3498 47.0308C23.4806 47.92 22.0636 47.92 21.1944 47.0308L14.0502 39.7477C13.178 38.8586 13.178 37.4202 14.0502 36.5311Z" fill="#0B0B0B"/>
<path fill-rule="evenodd" clip-rule="evenodd" d="M64 51.7952C64 56.4017 60.3326 60.1403 55.814 60.1403H8.18605C3.66735 60.1403 0 56.4017 0 51.7952V12.3452C0 7.73864 3.66735 4 8.18605 4H28.8625C30.6575 4 32.3274 4.94376 33.28 6.49749L33.6093 7.03461H55.814C60.3327 7.03461 64 10.7733 64 15.3798V51.7952ZM36.4002 11.5865L38.9715 15.7804C39.1085 16.0049 39.3466 16.1385 39.6026 16.1385H55.814C57.1535 16.1385 58.4183 16.467 59.5349 17.0494V15.3798C59.5349 13.2859 57.8679 11.5865 55.814 11.5865H36.4002ZM59.5349 24.4836C59.5349 22.3898 57.8679 20.6904 55.814 20.6904H39.6026C37.8076 20.6904 36.1377 19.7466 35.1851 18.1929L29.4936 8.91C29.3567 8.68544 29.1185 8.55192 28.8625 8.55192H8.18605C6.13209 8.55192 4.46512 10.2513 4.46512 12.3452V51.7952C4.46512 53.889 6.13209 55.5884 8.18605 55.5884H55.814C57.8679 55.5884 59.5349 53.889 59.5349 51.7952V24.4836Z" fill="#0B0B0B"/>
</svg>
