<svg width="64" height="64" viewBox="0 0 64 64" fill="none" xmlns="http://www.w3.org/2000/svg">
<path d="M27.7543 38.6524L32.4578 24.3522C32.8066 23.292 33.9379 22.7174 34.984 23.0708C36.0301 23.4242 36.5944 24.5707 36.2457 25.6309L31.5422 39.9338C31.1935 40.9912 30.0621 41.5658 29.016 41.2124C27.9699 40.8591 27.4056 39.7126 27.7543 38.6524Z" fill="#0B0B0B"/>
<path d="M41.1542 32.143L37.8615 28.806C37.0842 28.0156 37.0842 26.7342 37.8615 25.9438C38.6414 25.1534 39.9058 25.1534 40.6857 25.9438L45.3893 30.7105C46.1692 31.5009 46.1692 32.7823 45.3893 33.5727L40.6857 38.3395C39.9058 39.1299 38.6414 39.1299 37.8615 38.3395C37.0842 37.5517 37.0842 36.2677 37.8615 35.4799L41.1542 32.143Z" fill="#0B0B0B"/>
<path d="M23.3143 25.9438L18.6107 30.7105C17.8308 31.5009 17.8308 32.7823 18.6107 33.5727L23.3143 38.3395C24.0942 39.1299 25.3586 39.1299 26.1385 38.3395C26.9158 37.5517 26.9158 36.2677 26.1385 35.4799L22.8458 32.143L26.1385 28.806C26.9158 28.0156 26.9158 26.7342 26.1385 25.9438C25.3586 25.1534 24.0942 25.1534 23.3143 25.9438Z" fill="#0B0B0B"/>
<path fill-rule="evenodd" clip-rule="evenodd" d="M18.6427 13.4861C19.9576 12.5122 21.3711 11.6867 22.8591 11.0204L24.7384 5.59817C25.1377 4.44358 26.1252 3.59652 27.3151 3.3915C27.3204 3.3915 27.3231 3.3915 27.3257 3.3888C30.4188 2.87085 33.5758 2.87085 36.6716 3.3861C36.6769 3.3861 36.6823 3.3861 36.6876 3.3888C37.8801 3.59382 38.8677 4.44358 39.2669 5.60356L39.2643 5.59817L41.1409 11.0204C42.6316 11.6867 44.045 12.5149 45.3573 13.4888L50.9287 12.4259C52.1185 12.1993 53.3323 12.6417 54.1043 13.5859L54.1123 13.594C56.1034 16.0488 57.6819 18.8193 58.7892 21.7921C58.7892 21.7975 58.7919 21.8029 58.7945 21.8056C59.2124 22.9575 58.9835 24.2497 58.1929 25.175L54.4982 29.5344C54.6739 31.1745 54.6739 32.8282 54.4982 34.4683L58.1929 38.825C58.9809 39.7557 59.2098 41.0452 58.7892 42.1944C58.7892 42.1957 58.7885 42.1971 58.7879 42.1984C58.7872 42.1998 58.7865 42.2011 58.7865 42.2025C57.6819 45.178 56.1034 47.9485 54.1176 50.4087L54.1069 50.4195C53.3323 51.3637 52.1132 51.8061 50.9287 51.5768L45.3573 50.5139C44.0424 51.4878 42.6289 52.3133 41.1409 52.9796L39.2616 58.4018C38.8623 59.5564 37.8748 60.4035 36.6849 60.6085C36.6796 60.6085 36.6769 60.6085 36.6743 60.6112C33.5812 61.1291 30.4242 61.1291 27.3284 60.6139C27.3231 60.6139 27.3177 60.6139 27.3124 60.6112C26.1199 60.4062 25.1323 59.5564 24.7357 58.4018L22.8591 52.9796C21.3684 52.3133 19.955 51.4851 18.6427 50.5112L13.0713 51.5741C11.8815 51.8007 10.6677 51.3583 9.89572 50.4141L9.88773 50.406C7.89664 47.9512 6.31814 45.1807 5.2108 42.2079C5.2108 42.2025 5.20814 42.1971 5.20548 42.1944C4.78756 41.0425 5.01648 39.7503 5.80706 38.825L9.50176 34.4656C9.32607 32.8255 9.32607 31.1718 9.50176 29.5317L5.80706 25.175C5.01914 24.2443 4.79022 22.9548 5.2108 21.8056C5.2108 21.8043 5.21147 21.8029 5.21213 21.8016C5.2128 21.8002 5.21346 21.7989 5.21346 21.7975C6.31814 18.822 7.89664 16.0515 9.88241 13.5913L9.89305 13.5805C10.6677 12.6363 11.8868 12.1939 13.0713 12.4232L18.6427 13.4861ZM37.4702 12.639L35.6281 7.31657C33.2191 6.95508 30.7729 6.95508 28.3745 7.31926L26.5298 12.6417C26.2184 13.54 25.5476 14.2603 24.6905 14.6245C23.3116 15.2207 22.0073 15.9841 20.8148 16.8932C20.0668 17.4678 19.1112 17.6944 18.1901 17.5191L12.72 16.4751C11.208 18.4066 9.98622 20.5539 9.09449 22.8415L12.7226 27.12C13.3322 27.8429 13.6144 28.7952 13.4972 29.7286C13.3189 31.2366 13.3189 32.7634 13.4972 34.2633C13.6144 35.2075 13.3322 36.1598 12.72 36.8773L9.09183 41.1585C9.98888 43.4515 11.2133 45.5988 12.7226 47.5249L18.1928 46.4809C19.1138 46.3056 20.0668 46.5322 20.8068 47.1014C22.0073 48.0159 23.3116 48.7793 24.6825 49.3701C25.5476 49.7397 26.2184 50.4627 26.5298 51.361L28.3719 56.6834C30.7809 57.0449 33.2271 57.0449 35.6255 56.6807L37.4702 51.3583C37.7816 50.46 38.4524 49.7397 39.3095 49.3755C40.6884 48.7793 41.9927 48.0159 43.1852 47.1068C43.9332 46.5322 44.8888 46.3056 45.8099 46.4809L51.28 47.5249C52.792 45.5934 54.0138 43.4461 54.9055 41.1585L51.2774 36.88C50.6678 36.1571 50.3856 35.2048 50.5028 34.2714C50.6811 32.7634 50.6811 31.2366 50.5028 29.7367C50.3856 28.7925 50.6678 27.8402 51.28 27.1227L54.9082 22.8415C54.0111 20.5485 52.7867 18.4012 51.2774 16.4751L45.8072 17.5191C44.8862 17.6944 43.9332 17.4678 43.1932 16.8986C41.9927 15.9841 40.6884 15.2207 39.3175 14.6299C38.4524 14.2603 37.7816 13.5373 37.4702 12.639Z" fill="#0B0B0B"/>
</svg>
