<?xml version="1.0" encoding="utf-8"?>
<!-- Generator: Adobe Illustrator 27.1.1, SVG Export Plug-In . SVG Version: 6.00 Build 0)  -->
<svg version="1.1" id="Layer_1" xmlns="http://www.w3.org/2000/svg" xmlns:xlink="http://www.w3.org/1999/xlink" x="0px" y="0px"
	 viewBox="0 0 64 64" style="enable-background:new 0 0 64 64;" xml:space="preserve">
<path d="M27.5,30.9l4.7-14c0.4-1.2,1.7-1.8,2.8-1.4c1.2,0.4,1.8,1.7,1.4,2.8l-4.7,14c-0.4,1.2-1.7,1.8-2.8,1.4
	C27.8,33.3,27.1,32,27.5,30.9z M39.1,21.5l3.1,3.1l-3.1,3.1c-0.9,0.9-0.9,2.3,0,3.2c0.9,0.9,2.3,0.9,3.2,0l4.7-4.7
	c0.9-0.9,0.9-2.3,0-3.2l-4.7-4.7c-0.9-0.9-2.3-0.9-3.2,0C38.2,19.2,38.2,20.6,39.1,21.5z M17,23l4.7-4.7c0.9-0.9,2.3-0.9,3.2,0
	c0.9,0.9,0.9,2.3,0,3.2l-3.1,3.1l3.1,3.1c0.9,0.9,0.9,2.3,0,3.2c-0.9,0.9-2.3,0.9-3.2,0L17,26.1C16.1,25.3,16.1,23.9,17,23z
	 M57.3,45.4V3.7c0-2.1-1.7-3.7-3.7-3.7H14.9c-4.5,0-8.2,3.7-8.2,8.2v46.1c0,5.3,4.3,9.7,9.7,9.7H55c1.2,0,2.2-1,2.2-2.2
	c0-1-0.6-1.8-1.5-2.1V48.4C56.7,47.7,57.3,46.6,57.3,45.4z M51.3,59.5h-35c-2.9,0-5.2-2.3-5.2-5.2v0c0-2.9,2.3-5.2,5.2-5.2h35V59.5z
	 M52.8,44.7H16.3c-1.9,0-3.7,0.6-5.2,1.5v-38c0-2.1,1.7-3.7,3.7-3.7h38V44.7z"/>
</svg>
