<svg width="64" height="64" viewBox="0 0 64 64" fill="none" xmlns="http://www.w3.org/2000/svg">
<path d="M34.0346 50.8837C34.0346 52.0011 33.1237 52.907 32 52.907C30.8763 52.907 29.9654 52.0011 29.9654 50.8837C29.9654 49.7663 30.8763 48.8605 32 48.8605C33.1237 48.8605 34.0346 49.7663 34.0346 50.8837Z" fill="#0B0B0B"/>
<path fill-rule="evenodd" clip-rule="evenodd" d="M43.5294 5.02326C43.5294 3.90642 42.6179 3 41.4948 3H26.5744C24.9549 3 23.4031 3.63935 22.2583 4.77777C21.1135 5.91619 20.4706 7.45926 20.4706 9.06977V21.2093C20.4706 22.7533 20.8252 24.2598 21.4893 25.6225C20.4301 26.2241 18.9026 27.0916 17.4567 27.913C14.2881 29.7151 12.3322 33.0656 12.3322 36.6967V40.9356C11.7011 41.1418 11.137 41.5307 10.7181 42.065C10.0752 42.8824 9.84728 43.9507 10.1023 44.9569L13.4933 58.4453C13.8704 59.9479 15.2268 61 16.7812 61H47.2188C48.7732 61 50.1296 59.9479 50.5067 58.4453L53.8977 44.9569C54.1527 43.9507 53.9248 42.8824 53.2819 42.065C52.863 41.5307 52.2989 41.1418 51.6678 40.9356V36.6967C51.6678 33.0656 49.7119 29.7151 46.5433 27.913C45.0974 27.0916 43.5699 26.2241 42.5107 25.6225C43.1748 24.2598 43.5294 22.7533 43.5294 21.2093V9.06977C43.5294 8.89974 43.5083 8.73459 43.4685 8.57677C43.5088 8.29494 43.5294 8.00901 43.5294 7.72093V5.02326ZM14.261 44.814L17.3129 56.9535H46.6871L49.739 44.814H14.261ZM16.4014 40.7674V36.6967C16.4014 34.5196 17.576 32.5072 19.4777 31.4254C21.1589 30.4693 22.9518 29.4507 23.9886 28.8618C25.8319 30.4456 28.1907 31.3256 30.6436 31.3256H33.3564C35.8093 31.3256 38.1681 30.4456 40.0114 28.8618C41.0482 29.4507 42.8411 30.4693 44.5223 31.4254C46.424 32.5072 47.5986 34.5196 47.5986 36.6967V40.7674H16.4014ZM39.4602 13.4437C38.8129 13.6713 38.1256 13.7907 37.4256 13.7907H24.5398V21.2093C24.5398 22.8198 25.1827 24.3629 26.3275 25.5013C27.4723 26.6397 29.0241 27.2791 30.6436 27.2791H33.3564C34.9759 27.2791 36.5277 26.6397 37.6725 25.5013C38.8173 24.3629 39.4602 22.8198 39.4602 21.2093V13.4437ZM24.5398 9.74419V9.06977C24.5398 8.53293 24.7541 8.01767 25.1366 7.64C25.5164 7.25963 26.0346 7.04651 26.5744 7.04651H39.4602V7.72093C39.4602 8.25777 39.2459 8.77302 38.8634 9.1507C38.4836 9.53107 37.9654 9.74419 37.4256 9.74419H24.5398Z" fill="#0B0B0B"/>
</svg>
