<?xml version="1.0" encoding="utf-8"?>
<!-- Generator: Adobe Illustrator 27.1.1, SVG Export Plug-In . SVG Version: 6.00 Build 0)  -->
<svg version="1.1" id="Layer_1" xmlns="http://www.w3.org/2000/svg" xmlns:xlink="http://www.w3.org/1999/xlink" x="0px" y="0px"
	 viewBox="0 0 64 64" style="enable-background:new 0 0 64 64;" xml:space="preserve">
<style type="text/css">
	.st0{fill:#0B0B0B;}
</style>
<path class="st0" d="M57.1,41.3h-8.8l9-5.2c3.3-1.9,4.4-6.1,2.5-9.4L55.4,19c-1.9-3.3-6.1-4.4-9.4-2.5l-3,1.7l1.7-3
	c1.9-3.3,0.8-7.5-2.5-9.4l-7.7-4.4c-3.3-1.9-7.5-0.8-9.4,2.5l-2.5,4.3V6.9c0-3.8-3.1-6.9-6.9-6.9H6.9C3.1,0,0,3.1,0,6.9v47.7
	C0,59.8,4.2,64,9.4,64h47.7c3.8,0,6.9-3.1,6.9-6.9v-8.9C64,44.4,60.9,41.3,57.1,41.3z M18.9,60.2H9.4c-3.1,0-5.6-2.5-5.6-5.6V6.9
	c0-1.7,1.4-3.1,3.1-3.1h8.9c1.7,0,3.1,1.4,3.1,3.1V60.2z M47.9,19.7c1.5-0.9,3.4-0.3,4.3,1.1l4.4,7.7c0.9,1.5,0.3,3.4-1.1,4.3
	L24.1,51l15.2-26.3L47.9,19.7z M22.7,15.6l5.7-9.9c0.9-1.5,2.8-2,4.3-1.1l7.7,4.4c1.5,0.9,2,2.8,1.1,4.3L22.7,46V15.6z M60.2,57.1
	c0,1.7-1.4,3.1-3.1,3.1H22.7v-4.1l19.2-11.1h15.3c1.7,0,3.1,1.4,3.1,3.1V57.1z M13.2,52.6c0,1-0.8,1.9-1.9,1.9s-1.9-0.8-1.9-1.9
	s0.8-1.9,1.9-1.9S13.2,51.6,13.2,52.6z"/>
</svg>
