<?xml version="1.0" encoding="utf-8"?>
<!-- Generator: Adobe Illustrator 27.1.1, SVG Export Plug-In . SVG Version: 6.00 Build 0)  -->
<svg version="1.1" id="Layer_1" xmlns="http://www.w3.org/2000/svg" xmlns:xlink="http://www.w3.org/1999/xlink" x="0px" y="0px"
	 viewBox="0 0 64 64" style="enable-background:new 0 0 64 64;" xml:space="preserve">
<style type="text/css">
	.st0{fill:#0B0B0B;}
</style>
<path class="st0" d="M62,11.2c1,0,1.9-0.8,1.9-1.9V1.9C63.9,0.8,63,0,62,0h-7.5c-1,0-1.9,0.8-1.9,1.9v1.9H11.2V1.9
	c0-1-0.8-1.9-1.9-1.9H1.9C0.8,0,0,0.8,0,1.9v7.5c0,1,0.8,1.9,1.9,1.9h1.9v41.5H1.9c-1,0-1.9,0.8-1.9,1.9v7.5c0,1,0.8,1.9,1.9,1.9
	h7.5c1,0,1.9-0.8,1.9-1.9v-1.9h41.4v1.9c0,1,0.8,1.9,1.9,1.9H62c1,0,1.9-0.8,1.9-1.9v-7.5c0-1-0.8-1.9-1.9-1.9h-1.9V11.2H62z
	 M3.8,3.8h3.8v3.8H3.8V3.8z M7.5,60.2H3.8v-3.8h3.8V60.2z M52.6,54.6v1.9H11.2v-1.9c0-1-0.8-1.9-1.9-1.9H7.5V11.2h1.9
	c1,0,1.9-0.8,1.9-1.9V7.5h41.4v1.9c0,1,0.8,1.9,1.9,1.9h1.9v41.5h-1.9C53.5,52.8,52.6,53.6,52.6,54.6z M60.1,60.2h-3.8v-3.8h3.8
	V60.2z M56.4,7.5V3.8h3.8v3.8H56.4z M49.2,19.6l-4.2,5c0-1-0.9-1.8-1.9-1.8h-7.5c-0.4-6.3-5.7-11.4-12.2-11.4
	c-6.7,0-12.2,5.5-12.2,12.2c0,5.1,3.1,9.4,7.5,11.2v15.9c0,1,0.8,1.9,1.9,1.9h22.5c1,0,1.9-0.8,1.9-1.9v-5.6h5.6
	c1,0,1.9-0.8,1.9-1.9V20.8C52.5,19,50.3,18.2,49.2,19.6z M15,23.6c0-4.7,3.8-8.4,8.4-8.4s8.4,3.8,8.4,8.4S28.1,32,23.4,32
	S15,28.2,15,23.6z M41.2,48.9H22.5V35.7c6,0.5,11.4-3.5,12.8-9.2h6v2.6l-10.8,13c-1,1.2-0.1,3.1,1.4,3.1h9.3V48.9z M48.8,41.4H35.9
	l12.8-15.4V41.4z"/>
</svg>
