<?xml version="1.0" encoding="utf-8"?>
<!-- Generator: Adobe Illustrator 27.1.1, SVG Export Plug-In . SVG Version: 6.00 Build 0)  -->
<svg version="1.1" id="Layer_1" xmlns="http://www.w3.org/2000/svg" xmlns:xlink="http://www.w3.org/1999/xlink" x="0px" y="0px"
	 viewBox="0 0 64 64" style="enable-background:new 0 0 64 64;" xml:space="preserve">
<style type="text/css">
	.st0{fill:#0B0B0B;}
</style>
<path class="st0" d="M63.6,8.2c0-2.2-0.9-4.3-2.4-5.8C59.7,0.9,57.6,0,55.5,0s-4.2,0.9-5.8,2.4l-36,36.2L9,41c-2.8,1.4-4.8,4-5.6,7
	c-1.3,5.1-3.3,13.3-3.3,13.3c-0.2,0.7,0,1.5,0.6,2c0.5,0.5,1.3,0.7,2,0.6c0,0,8.2-2.1,13.3-3.3c3-0.8,5.6-2.8,7-5.6l2.4-4.7l36-36.2
	C62.8,12.5,63.6,10.4,63.6,8.2z M19,53.1c-0.8,1.7-2.4,2.9-4.2,3.4l-9.8,2.5L7.5,49c0.5-1.8,1.7-3.4,3.3-4.2l3.6-1.8l6.4,6.4
	L19,53.1z M23.5,45.9l-5.5-5.5l3.4-3.4l5.5,5.5L23.5,45.9z M58.2,11L29.9,39.5L24.3,34L52.7,5.4c0.7-0.7,1.7-1.2,2.8-1.2
	c1,0,2,0.4,2.8,1.2c0.7,0.7,1.1,1.7,1.1,2.8C59.4,9.3,59,10.3,58.2,11z M63.9,61.2l-4.3-12.9c-0.1-0.3-0.3-0.6-0.5-0.8l-11-11.1
	c-0.8-0.8-2.2-0.8-3,0c-0.8,0.8-0.8,2.2,0,3l9.5,9.6l-5.5,5.5l-9.5-9.6c-0.8-0.8-2.2-0.8-3,0c-0.8,0.8-0.8,2.2,0,3l11,11.1
	c0.2,0.2,0.5,0.4,0.8,0.5l12.8,4.3c0.8,0.3,1.6,0.1,2.2-0.5C63.9,62.8,64.1,61.9,63.9,61.2z M53,56.6l3.7-3.7l1.8,5.5L53,56.6z
	 M15.9,27.3c0.8,0.8,2.2,0.8,3,0c0.8-0.8,0.8-2.2,0-3l-7.4-7.4l5.5-5.5l7.4,7.4c0.8,0.8,2.2,0.8,3,0c0.8-0.8,0.8-2.2,0-3L14.3,2.4
	c-3.2-3.2-8.4-3.2-11.5,0c-3.2,3.2-3.2,8.4,0,11.6L15.9,27.3z M5.8,5.4c1.5-1.5,4-1.5,5.5,0L14,8.2l-5.5,5.5L5.8,11
	C4.3,9.5,4.3,7,5.8,5.4z"/>
</svg>
