<svg width="64" height="64" viewBox="0 0 64 64" fill="none" xmlns="http://www.w3.org/2000/svg">
<path d="M64 11.448V40.8098C64 45.4768 60.2 49.2577 55.5375 49.2577H52.6C51.175 49.2577 50.0125 48.0973 50.0125 46.6747C50.0125 45.2522 51.175 44.0917 52.6 44.0917H55.5375C57.35 44.0917 58.8375 42.6192 58.8375 40.7973V11.448C58.8375 9.63858 57.3625 8.15364 55.5375 8.15364H8.4625C6.65 8.15364 5.1625 9.6261 5.1625 11.448V40.8098C5.1625 42.6192 6.6375 44.1041 8.4625 44.1041H11.4C12.825 44.1041 13.9875 45.2646 13.9875 46.6872C13.9875 48.1097 12.825 49.2702 11.4 49.2702H8.4625C3.8 49.2578 0 45.4768 0 40.8098V11.448C0 6.78101 3.8 3.00003 8.4625 3.00003H55.525C60.2 2.98755 64 6.78101 64 11.448ZM48.6875 56.7698C49.325 57.5435 49.4625 58.6041 49.0375 59.5151C48.6125 60.426 47.7 61 46.7 61H17.2875C16.2875 61 15.375 60.426 14.95 59.5151C14.525 58.6041 14.6625 57.5435 15.3 56.7698L30.0125 39.1502C30.5 38.5637 31.2375 38.2268 32 38.2268C32.7625 38.2268 33.5 38.5637 33.9875 39.1502L48.6875 56.7698ZM41.1875 55.8464L32 44.8404L22.8125 55.8464H41.1875V55.8464Z" fill="#0B0B0B"/>
</svg>
