<?xml version="1.0" encoding="utf-8"?>
<!-- Generator: Adobe Illustrator 27.1.1, SVG Export Plug-In . SVG Version: 6.00 Build 0)  -->
<svg version="1.1" id="Layer_1" xmlns="http://www.w3.org/2000/svg" xmlns:xlink="http://www.w3.org/1999/xlink" x="0px" y="0px"
	 viewBox="0 0 64 64" style="enable-background:new 0 0 64 64;" xml:space="preserve">
<path d="M53.9,8H10.1C4.5,8,0,12.6,0,18.4v27.3C0,51.4,4.5,56,10.1,56h43.8C59.5,56,64,51.4,64,45.6V18.4C64,12.6,59.5,8,53.9,8z
	 M53.6,14.2L32,30.5L10.4,14.2H53.6z M53.9,49.8H10.1c-2.2,0-4-1.8-4-4.1V18.7l24.1,18.2c0.5,0.4,1.2,0.6,1.8,0.6
	c0.6,0,1.3-0.2,1.8-0.6l24.1-18.2v26.9C57.9,47.9,56.1,49.8,53.9,49.8z"/>
</svg>
