<svg width="64" height="64" viewBox="0 0 64 64" fill="none" xmlns="http://www.w3.org/2000/svg">
<path fill-rule="evenodd" clip-rule="evenodd" d="M42 0H21.9008C18.7445 0 15.7175 1.25383 13.4857 3.48567C11.2538 5.7175 10 8.74453 10 11.9008C10 15.0572 11.2538 18.0841 13.4857 20.316C14.1087 20.939 14.7937 21.4858 15.5262 21.9504C14.7937 22.415 14.1087 22.9618 13.4857 23.5849C11.2538 25.8167 10 28.8436 10 32C10 35.1563 11.2538 38.1833 13.4857 40.4151C14.1087 41.0382 14.7937 41.585 15.5262 42.0496C14.7937 42.5142 14.1087 43.061 13.4857 43.684C11.2538 45.9159 10 48.9428 10 52.0992C10 55.2555 11.2538 58.2825 13.4857 60.5143C15.7175 62.7461 18.7445 64 21.9008 64C25.0572 64 28.0841 62.7461 30.316 60.5143C32.5478 58.2825 33.8017 55.2555 33.8017 52.0992V40.6265C36.0107 42.726 38.9447 43.9008 42 43.9008C45.1564 43.9008 48.1833 42.647 50.4151 40.4151C52.647 38.1833 53.9008 35.1564 53.9008 32C53.9008 28.8436 52.647 25.8167 50.4151 23.5849C49.7921 22.9618 49.1071 22.415 48.3747 21.9504C49.1071 21.4858 49.7921 20.939 50.4151 20.316C52.647 18.0841 53.9008 15.0572 53.9008 11.9008C53.9008 8.74452 52.647 5.7175 50.4151 3.48568C48.1833 1.25384 45.1564 0 42 0ZM33.8017 32C33.8017 34.1744 34.6654 36.2596 36.2029 37.7971C37.7404 39.3346 39.8256 40.1983 42 40.1983C44.1744 40.1983 46.2596 39.3346 47.7971 37.7971C49.3346 36.2596 50.1983 34.1744 50.1983 32C50.1983 29.8256 49.3346 27.7404 47.7971 26.2029C46.2596 24.6654 44.1744 23.8017 42 23.8017C39.8256 23.8017 37.7404 24.6654 36.2029 26.2029C34.6654 27.7404 33.8017 29.8256 33.8017 32ZM30.0992 43.9008H21.9008C19.7265 43.9008 17.6412 44.7646 16.1037 46.3021C14.5662 47.8396 13.7025 49.9248 13.7025 52.0992C13.7025 54.2735 14.5662 56.3588 16.1037 57.8963C17.6412 59.4338 19.7265 60.2975 21.9008 60.2975C24.0752 60.2975 26.1604 59.4338 27.6979 57.8963C29.2354 56.3588 30.0992 54.2735 30.0992 52.0992V43.9008ZM21.9008 20.0992H30.0992V3.70248H21.9008C19.7265 3.70248 17.6412 4.56623 16.1037 6.10372C14.5662 7.6412 13.7025 9.72649 13.7025 11.9008C13.7025 14.0752 14.5662 16.1604 16.1037 17.6979C17.6412 19.2354 19.7265 20.0992 21.9008 20.0992ZM21.9008 23.8017C19.7265 23.8017 17.6412 24.6654 16.1037 26.2029C14.5662 27.7404 13.7025 29.8256 13.7025 32C13.7025 34.1744 14.5662 36.2596 16.1037 37.7971C17.6412 39.3346 19.7265 40.1983 21.9008 40.1983H30.0992V23.8017H21.9008ZM42 20.0992H33.8017V3.70248H42C44.1744 3.70248 46.2596 4.56623 47.7971 6.10373C49.3346 7.64121 50.1983 9.72649 50.1983 11.9008C50.1983 14.0752 49.3346 16.1604 47.7971 17.6979C46.2596 19.2354 44.1744 20.0992 42 20.0992Z" fill="#0B0B0B"/>
</svg>
