<svg width="64" height="64" viewBox="0 0 64 64" fill="none" xmlns="http://www.w3.org/2000/svg">
<path d="M31.996 1C14.328 1 0 15.384 0 33.128C0 47.32 9.168 59.36 21.888 63.612C23.488 63.908 24.072 62.916 24.072 62.064C24.072 61.3 24.044 59.28 24.028 56.6C15.128 58.54 13.248 52.292 13.248 52.292C11.796 48.58 9.696 47.592 9.696 47.592C6.788 45.6 9.912 45.64 9.912 45.64C13.124 45.868 14.812 48.952 14.812 48.952C17.668 53.86 22.304 52.444 24.128 51.62C24.416 49.544 25.244 48.128 26.16 47.324C19.056 46.512 11.584 43.756 11.584 31.448C11.584 27.94 12.832 25.072 14.88 22.824C14.548 22.012 13.452 18.744 15.192 14.324C15.192 14.324 17.88 13.46 23.992 17.616C26.544 16.904 29.28 16.548 32.004 16.536C34.72 16.552 37.46 16.904 40.016 17.62C46.124 13.464 48.808 14.328 48.808 14.328C50.552 18.752 49.456 22.016 49.128 22.828C51.18 25.076 52.416 27.944 52.416 31.452C52.416 43.792 44.936 46.508 37.808 47.304C38.956 48.296 39.98 50.256 39.98 53.252C39.98 57.548 39.94 61.012 39.94 62.064C39.94 62.924 40.516 63.924 42.14 63.608C54.84 59.352 64 47.316 64 33.128C64 15.384 49.672 1 31.996 1Z" fill="#0B0B0B"/>
</svg>
