<svg width="64" height="64" viewBox="0 0 64 64" fill="none" xmlns="http://www.w3.org/2000/svg">
<path d="M58.7662 7.59056C55.4559 4.03241 50.8172 2.00788 45.9573 2.00037C41.0935 2.006 36.4501 4.02946 33.1346 7.58828L32.0047 8.78228L30.8748 7.58828C24.296 0.50777 13.2229 0.101147 6.14249 6.67988C5.82875 6.97151 5.52572 7.2744 5.23409 7.58828C-1.7447 15.1158 -1.7447 26.7491 5.23409 34.2766L30.3442 60.7568C31.2129 61.6739 32.6606 61.7132 33.5777 60.8444C33.6077 60.816 33.637 60.7868 33.6654 60.7568L58.7663 34.2766C65.7446 26.7499 65.7446 15.1172 58.7662 7.59056ZM55.4565 31.127H55.4542L32.0047 55.8596L8.55301 31.127C3.22162 25.3753 3.22162 16.4873 8.55301 10.7357C13.3946 5.48816 21.5735 5.15914 26.821 10.0007C27.0758 10.2358 27.3209 10.4809 27.556 10.7357L30.3442 13.6772C31.263 14.5901 32.7465 14.5901 33.6654 13.6772L36.4536 10.7379C41.2951 5.49044 49.4741 5.16141 54.7215 10.003C54.9763 10.238 55.2214 10.4832 55.4565 10.7379C60.8343 16.4987 60.8737 25.4029 55.4565 31.127Z" fill="#0B0B0B"/>
</svg>
