<?xml version="1.0" encoding="utf-8"?>
<!-- Generator: Adobe Illustrator 27.1.1, SVG Export Plug-In . SVG Version: 6.00 Build 0)  -->
<svg version="1.1" id="Layer_1" xmlns="http://www.w3.org/2000/svg" xmlns:xlink="http://www.w3.org/1999/xlink" x="0px" y="0px"
	 viewBox="0 0 64 64" style="enable-background:new 0 0 64 64;" xml:space="preserve">
<style type="text/css">
	.st0{fill:#0B0B0B;}
</style>
<path class="st0" d="M14,7c0,3.9-3.1,7-7,7c-3.9,0-7-3.1-7-7c0-3.9,3.1-7,7-7C10.9,0,14,3.1,14,7z M14.3,20H0v44h14.3V20z
	 M53.2,20.5C53.2,20.5,53.2,20.5,53.2,20.5c-0.2-0.1-0.3-0.1-0.4-0.1c-0.2,0-0.4-0.1-0.6-0.1c-0.8-0.2-1.6-0.3-2.6-0.3
	c-8.3,0-13.6,6.1-15.4,8.4V20H20v44h14.3V40c0,0,10.8-15.1,15.4-4v28H64V34.3C64,27.7,59.4,22.1,53.2,20.5
	C53.3,20.5,53.2,20.5,53.2,20.5z"/>
</svg>
