<?xml version="1.0" encoding="utf-8"?>
<!-- Generator: Adobe Illustrator 27.1.1, SVG Export Plug-In . SVG Version: 6.00 Build 0)  -->
<svg version="1.1" id="Layer_1" xmlns="http://www.w3.org/2000/svg" xmlns:xlink="http://www.w3.org/1999/xlink" x="0px" y="0px"
	 viewBox="0 0 64 64" style="enable-background:new 0 0 64 64;" xml:space="preserve">
<style type="text/css">
	.st0{fill-rule:evenodd;clip-rule:evenodd;fill:#0B0B0B;}
</style>
<path class="st0" d="M45,3H19c-4.4,0-8,3.6-8,8v43c0,4.4,3.6,8,8,8h26c4.4,0,8-3.6,8-8V11C53,6.6,49.4,3,45,3z M48,54
	c0,1.7-1.3,3-3,3H19c-1.7,0-3-1.3-3-3V11c0-1.7,1.3-3,3-3h26c1.7,0,3,1.3,3,3V54z M23.5,15c0-1.4,1.1-2.5,2.5-2.5h12
	c1.4,0,2.5,1.1,2.5,2.5s-1.1,2.5-2.5,2.5H26C24.6,17.5,23.5,16.4,23.5,15z M31.5,53c1.4,0,2.5-1.1,2.5-2.5S32.9,48,31.5,48
	S29,49.1,29,50.5S30.1,53,31.5,53z"/>
</svg>
