<svg width="64" height="64" viewBox="0 0 64 64" fill="none" xmlns="http://www.w3.org/2000/svg">
<path fill-rule="evenodd" clip-rule="evenodd" d="M64 42.6478C64 52.5551 55.9861 58.4261 44.7072 58.4261C33.7994 58.4261 26.8243 53.289 23.9304 45.7301L34.1704 39.8591C36.0255 44.1155 39.2162 46.9776 45.0783 46.9776C50.7177 46.9776 52.1275 44.776 52.1275 42.7946C52.1275 39.6389 49.1594 38.3913 41.3681 36.2631C39.0282 35.6178 36.7019 34.8308 34.5961 33.7732C31.346 38.2849 25.9365 41.2216 19.6638 41.2216H11.8725V57.313H0V6.11304H19.6638C23.8856 6.11304 27.7164 7.44335 30.761 9.68877C34.0519 6.64184 38.7115 5 43.52 5C52.0533 5 58.7316 9.03631 62.5159 16.5952L52.4985 22.3928C50.7177 18.7235 48.269 16.4484 43.52 16.4484C39.8099 16.4484 37.9548 18.2831 37.9548 20.338C37.9548 22.6864 39.2162 24.3009 47.3043 26.7227C55.1699 29.0711 64 31.7864 64 42.6478ZM11.8725 30.2502H19.6638C23.2997 30.2502 25.971 27.3976 25.971 23.6673C25.971 19.937 23.2997 17.0845 19.6638 17.0845H11.8725V30.2502Z" fill="#0B0B0B"/>
</svg>
