<?xml version="1.0" encoding="utf-8"?>
<!-- Generator: Adobe Illustrator 27.1.1, SVG Export Plug-In . SVG Version: 6.00 Build 0)  -->
<svg version="1.1" id="Layer_1" xmlns="http://www.w3.org/2000/svg" xmlns:xlink="http://www.w3.org/1999/xlink" x="0px" y="0px"
	 viewBox="0 0 64 64" style="enable-background:new 0 0 64 64;" xml:space="preserve">
<path d="M7,45.1c-2.7,2.7-6.2,14.1-6.9,16.3c-0.2,0.7,0,1.5,0.5,2C1,63.8,1.5,64,2,64c0.2,0,0.4,0,0.6-0.1
	c2.2-0.7,13.6-4.2,16.3-6.9c1.6-1.6,2.5-3.7,2.5-5.9c0-2.2-0.9-4.4-2.5-6C15.7,42,10.2,42,7,45.1z M16,54.2c-1.2,1.2-6.3,3.2-11,4.7
	c1.6-4.7,3.6-9.8,4.7-11c0.9-0.9,2-1.3,3.1-1.3c1.1,0,2.3,0.4,3.1,1.3C17.8,49.7,17.8,52.5,16,54.2z M62,0
	C49.7-0.3,35.7,6.1,26.8,16c-8.6,0.2-16.7,3.7-22.8,9.9c-0.5,0.5-0.7,1.3-0.5,2.1c0.2,0.7,0.9,1.2,1.6,1.4l8.8,1.3L13.4,31
	c-0.7,0.8-0.7,2,0.1,2.7l9.7,9.7l2.8-2.8l-8.3-8.3L29,19.6c7.7-9,19.9-15.1,31-15.5c-0.4,11-6.5,23.3-15.6,31L31.8,46.3L29.4,44
	l-2.8,2.8l3.7,3.7c0.4,0.4,0.9,0.6,1.4,0.6c0.5,0,1-0.2,1.3-0.5l0.4-0.4l1.3,8.8c0.1,0.7,0.7,1.3,1.4,1.6c0.2,0.1,0.4,0.1,0.6,0.1
	c0.6,0,1.1-0.2,1.5-0.6c6.1-6.1,9.6-14.1,9.8-22.7c9.9-9,16.3-23,16-35.3C64,0.9,63.1,0,62,0z M17,27l-7.1-1
	c3.8-2.9,8.2-4.8,12.9-5.6L17,27z M38,54.1L37,47l6.6-5.9C42.8,45.8,40.9,50.2,38,54.1z"/>
</svg>
