<?xml version="1.0" encoding="utf-8"?>
<!-- Generator: Adobe Illustrator 27.1.1, SVG Export Plug-In . SVG Version: 6.00 Build 0)  -->
<svg version="1.1" id="Layer_1" xmlns="http://www.w3.org/2000/svg" xmlns:xlink="http://www.w3.org/1999/xlink" x="0px" y="0px"
	 viewBox="0 0 64 64" style="enable-background:new 0 0 64 64;" xml:space="preserve">
<path d="M60,0H11C9.9,0,8.9,0.4,8.2,1.2C7.4,1.9,7,2.9,7,4v28.4h4V4h49v49H25.5v4H60c1.1,0,2.1-0.4,2.8-1.2c0.7-0.7,1.2-1.8,1.2-2.8
	V4c0-1.1-0.4-2.1-1.2-2.8C62.1,0.4,61.1,0,60,0z M22,40c0-1.1-0.4-2.1-1.2-2.8C20.1,36.4,19.1,36,18,36H4c-1.1,0-2.1,0.4-2.8,1.2
	C0.4,37.9,0,38.9,0,40v4c0,0.7,0.2,1.4,0.6,2C0.2,46.6,0,47.3,0,48v4c0,0.7,0.2,1.4,0.6,2C0.2,54.6,0,55.3,0,56v4
	c0,1.1,0.4,2.1,1.2,2.8C1.9,63.6,2.9,64,4,64h14c1.1,0,2.1-0.4,2.8-1.2c0.7-0.7,1.2-1.8,1.2-2.8v-2.4L21.9,57v-3.8l0-0.2
	c0.1-0.3,0.1-0.7,0.1-1v-4c0-0.7-0.2-1.4-0.6-2c0.4-0.6,0.6-1.3,0.6-2V40z M4,60v-4h14l0,4H4z M4,52v-4h14l0,4H4z M4,44v-4h14l0,4H4
	z M28.8,37.8C28.5,37.9,28.3,38,28,38c-0.4,0-0.8-0.1-1.1-0.3c-0.3-0.2-0.6-0.5-0.7-0.9C26,36.4,26,36,26,35.6
	c0.1-0.4,0.3-0.7,0.5-1L49.2,12H46c-0.5,0-1-0.2-1.4-0.6S44,10.5,44,10c0-0.5,0.2-1,0.6-1.4C45,8.2,45.5,8,46,8h8
	c0.5,0,1,0.2,1.4,0.6C55.8,9,56,9.5,56,10v8c0,0.5-0.2,1-0.6,1.4C55,19.8,54.5,20,54,20s-1-0.2-1.4-0.6C52.2,19,52,18.5,52,18v-3.2
	L29.4,37.4C29.2,37.6,29,37.7,28.8,37.8z"/>
</svg>
