<?xml version="1.0" encoding="utf-8"?>
<!-- Generator: Adobe Illustrator 27.1.1, SVG Export Plug-In . SVG Version: 6.00 Build 0)  -->
<svg version="1.1" id="Layer_1" xmlns="http://www.w3.org/2000/svg" xmlns:xlink="http://www.w3.org/1999/xlink" x="0px" y="0px"
	 viewBox="0 0 64 64" style="enable-background:new 0 0 64 64;" xml:space="preserve">
<style type="text/css">
	.st0{fill:#0B0B0B;}
</style>
<path class="st0" d="M7.2,59.7h27.9v-3.9H7.2c-1.8,0-3.3-1.5-3.3-3.3V12.2c0-1.8,1.5-3.3,3.3-3.3h38.2c1.8,0,3.3,1.5,3.3,3.3v6.4
	h3.9v-6.4c0-4-3.2-7.2-7.2-7.2H7.2C3.2,5,0,8.2,0,12.2v40.3C0,56.5,3.2,59.7,7.2,59.7z M27,25.8H7.9v3.9H27V25.8z M23.3,36.3H7.9
	v3.9h15.4V36.3z M31.6,34.9c0,7.3,5.9,13.2,13.2,13.2c2.9,0,5.6-1,7.8-2.6l8.6,8.6l2.8-2.8l-8.6-8.6c1.6-2.2,2.6-4.9,2.6-7.8
	c0-7.3-5.9-13.2-13.2-13.2S31.6,27.7,31.6,34.9z M35.5,34.9c0-5.1,4.1-9.2,9.2-9.2s9.2,4.1,9.2,9.2c0,5.1-4.1,9.2-9.2,9.2
	S35.5,40,35.5,34.9z"/>
</svg>
