<?xml version="1.0" encoding="utf-8"?>
<!-- Generator: Adobe Illustrator 27.1.1, SVG Export Plug-In . SVG Version: 6.00 Build 0)  -->
<svg version="1.1" id="Layer_1" xmlns="http://www.w3.org/2000/svg" xmlns:xlink="http://www.w3.org/1999/xlink" x="0px" y="0px"
	 viewBox="0 0 64 64" style="enable-background:new 0 0 64 64;" xml:space="preserve">
<style type="text/css">
	.st0{fill:#0B0B0B;}
</style>
<path class="st0" d="M23.9,40.8c1.1,0,2,0.9,2,2c0,1.1-0.9,2-2,2H13.1c-1.1,0-2-0.9-2-2c0-1.1,0.9-2,2-2H23.9z M39.4,26.6
	c0-1.1-0.9-2-2-2H13.1c-1.1,0-2,0.9-2,2c0,1.1,0.9,2,2,2h24.3C38.5,28.6,39.4,27.7,39.4,26.6z M61,46.9c0,1.1-0.9,2-2,2h-2
	c-0.3,1.3-0.8,2.5-1.5,3.6L57,54c0.8,0.8,0.8,2.1,0,2.9c-0.8,0.8-2.1,0.8-2.9,0l-1.5-1.5c-1.1,0.7-2.3,1.2-3.6,1.5V59
	c0,1.1-0.9,2-2,2s-2-0.9-2-2v-2.1c-1.3-0.3-2.5-0.8-3.6-1.5l-1.5,1.5c-0.8,0.8-2.1,0.8-2.9,0c-0.8-0.8-0.8-2.1,0-2.9l1.5-1.4
	c-0.7-1.1-1.2-2.3-1.5-3.6h-2.2c-1.1,0-2-0.9-2-2s0.9-2,2-2h2.1c0.3-1.3,0.8-2.5,1.5-3.6l-1.5-1.5c-0.8-0.8-0.8-2.1,0-2.9
	c0.8-0.8,2.1-0.8,2.9,0l1.4,1.5c1.1-0.7,2.3-1.2,3.6-1.5v-2.2c0-1.1,0.9-2,2-2c1.1,0,2,0.9,2,2v2.1c1.3,0.3,2.5,0.8,3.6,1.5l1.5-1.5
	c0.8-0.8,2.1-0.8,2.9,0c0.8,0.8,0.8,2.1,0,2.9l-1.5,1.5c0.7,1.1,1.2,2.3,1.5,3.6H59C60.1,44.9,61,45.8,61,46.9z M53,47
	c0-3.4-2.7-6.1-6.1-6.1c-3.3,0-6.1,2.7-6.1,6.1c0,3.3,2.7,6.1,6.1,6.1C50.2,53.1,53,50.4,53,47z M31.3,34.7c0-1.1-0.9-2-2-2H13.1
	c-1.1,0-2,0.9-2,2c0,1.1,0.9,2,2,2h16.2C30.4,36.7,31.3,35.8,31.3,34.7z M61,13.1v20.2c0,1.2-0.9,2.1-2,2c-1.1,0-2-0.9-2-2V20.5H7
	v30.4c0,3.3,2.8,6.1,6.1,6.1h20.2c1.1,0,2,0.9,2,2s-0.9,2-2,2H13.1C7.5,61,3,56.5,3,50.9V13.1C3,7.5,7.5,3,13.1,3h37.8
	C56.5,3,61,7.5,61,13.1z M57,13.1C57,9.8,54.2,7,50.9,7H13.1C9.8,7,7,9.8,7,13.1v3.4h50V13.1z M34,9.8c-1.1,0-2,0.9-2,2
	c0,1.1,0.9,2,2,2s2-0.9,2-2C36,10.6,35.1,9.7,34,9.8z M48.9,9.8c-1.1,0-2,0.9-2,2c0,1.1,0.9,2,2,2c1.1,0,2-0.9,2-2
	C50.9,10.6,50,9.8,48.9,9.8z M41.4,9.8c-1.1,0-2,0.9-2,2c0,1.1,0.9,2,2,2c1.1,0,2-0.9,2-2C43.4,10.7,42.5,9.8,41.4,9.8z"/>
</svg>
