<?xml version="1.0" encoding="utf-8"?>
<!-- Generator: Adobe Illustrator 27.1.1, SVG Export Plug-In . SVG Version: 6.00 Build 0)  -->
<svg version="1.1" id="Layer_1" xmlns="http://www.w3.org/2000/svg" xmlns:xlink="http://www.w3.org/1999/xlink" x="0px" y="0px"
	 viewBox="0 0 64 64" style="enable-background:new 0 0 64 64;" xml:space="preserve">
<style type="text/css">
	.st0{fill:#0B0B0B;}
</style>
<path class="st0" d="M61.3,44.7h-3.9c-0.3-1.4-0.8-2.8-1.6-3.9l2.7-2.8c0.9-0.9,0.9-2.3,0-3.2c-0.9-0.9-2.2-0.9-3.1,0l-2.7,2.8
	c-1.2-0.8-2.5-1.3-3.9-1.6V32c0-1.2-1-2.2-2.2-2.2c-1.2,0-2.2,1-2.2,2.2v3.9c-1.4,0.3-2.7,0.9-3.9,1.6l-2.7-2.8
	c-0.9-0.9-2.2-0.9-3.1,0c-0.9,0.9-0.9,2.3,0,3.2l2.7,2.8c-0.8,1.2-1.3,2.5-1.6,3.9H32c-1.2,0-2.2,1-2.2,2.2c0,1.2,1,2.2,2.2,2.2h3.9
	c0.3,1.4,0.8,2.8,1.6,3.9l-2.7,2.8c-0.9,0.9-0.9,2.3,0,3.2c0.9,0.9,2.2,0.9,3.1,0l2.7-2.8c1.2,0.8,2.5,1.3,3.9,1.6v3.9
	c0,1.2,1,2.2,2.2,2.2c1.2,0,2.2-1,2.2-2.2v-3.9c1.4-0.3,2.7-0.9,3.9-1.6l2.7,2.8c0.9,0.9,2.2,0.9,3.1,0c0.9-0.9,0.9-2.3,0-3.2
	L55.8,53c0.8-1.2,1.3-2.5,1.6-3.9h3.9c1.2,0,2.2-1,2.2-2.2C63.4,45.7,62.5,44.7,61.3,44.7z M46.6,53.6c-3.6,0-6.6-3-6.6-6.7
	c0-3.7,2.9-6.7,6.6-6.7c3.6,0,6.6,3,6.6,6.7C53.2,50.6,50.3,53.6,46.6,53.6z M15.2,9.7c0,1.2-1,2.2-2.2,2.2h-2.9
	c-1.2,0-2.2-1-2.2-2.2c0-1.2,1-2.2,2.2-2.2H13C14.2,7.4,15.2,8.4,15.2,9.7z M61.1,2.4C59.6,0.9,57.5,0,55.4,0H8.6
	C6.5,0,4.4,0.9,2.9,2.4C1.4,3.9,0.6,6,0.6,8.2v47.6c0,2.2,0.8,4.3,2.4,5.8C4.4,63.1,6.5,64,8.6,64h20.5c1.2,0,2.2-1,2.2-2.2
	c0-1.2-1-2.2-2.2-2.2H8.6c-1,0-1.9-0.4-2.6-1.1c-0.7-0.7-1.1-1.6-1.1-2.6V19.3h54.1V29c0,1.2,1,2.2,2.2,2.2c1.2,0,2.2-1,2.2-2.2V8.2
	C63.4,6,62.6,3.9,61.1,2.4z M59.1,14.9H4.9V8.2c0-1,0.4-1.9,1.1-2.6c0.7-0.7,1.6-1.1,2.6-1.1h46.8c1,0,1.9,0.4,2.6,1.1
	c0.7,0.7,1.1,1.6,1.1,2.6V14.9z M25.4,9.7c0,1.2-1,2.2-2.2,2.2h-2.9c-1.2,0-2.2-1-2.2-2.2c0-1.2,1-2.2,2.2-2.2h2.9
	C24.4,7.4,25.4,8.4,25.4,9.7z M35.7,9.7c0,1.2-1,2.2-2.2,2.2h-2.9c-1.2,0-2.2-1-2.2-2.2c0-1.2,1-2.2,2.2-2.2h2.9
	C34.7,7.4,35.7,8.4,35.7,9.7z"/>
</svg>
