<?xml version="1.0" encoding="utf-8"?>
<!-- Generator: Adobe Illustrator 27.1.1, SVG Export Plug-In . SVG Version: 6.00 Build 0)  -->
<svg version="1.1" id="Layer_1" xmlns="http://www.w3.org/2000/svg" xmlns:xlink="http://www.w3.org/1999/xlink" x="0px" y="0px"
	 viewBox="0 0 64 64" style="enable-background:new 0 0 64 64;" xml:space="preserve">
<path d="M5,29.5C5,49,26.3,54.7,26.5,54.8l1-3.6l0,0C27.1,51,8.8,46,8.8,29.5v-19l21.6-6.6L52,10.5v19.1c0,2.2-0.3,4.2-0.9,6.2
	l3.6,1.1c0.7-2.3,1.1-4.8,1.1-7.4V9.1c0-0.8-0.5-1.5-1.2-1.8L31,0.1c-0.4-0.2-0.9-0.2-1.3,0L6.2,7.4C5.5,7.6,5,8.4,5,9.1V29.5z
	 M36.4,63.9C36.6,64,36.8,64,37,64c0.6,0,1.1-0.3,1.5-0.7l6.8-9.1l11.4,2.3c0.8,0.2,1.6-0.2,2-1c0.4-0.7,0.2-1.6-0.3-2.2L38.3,33.2
	c-0.5-0.5-1.3-0.7-2-0.4c-0.7,0.3-1.2,1-1.2,1.7v27.6C35.1,62.9,35.6,63.6,36.4,63.9z M38.9,56.5V39.1l12.5,12.4l-6.5-1.3
	c-0.7-0.1-1.4,0.1-1.9,0.7L38.9,56.5z"/>
</svg>
