<?xml version="1.0" encoding="utf-8"?>
<!-- Generator: Adobe Illustrator 27.1.1, SVG Export Plug-In . SVG Version: 6.00 Build 0)  -->
<svg version="1.1" id="Layer_1" xmlns="http://www.w3.org/2000/svg" xmlns:xlink="http://www.w3.org/1999/xlink" x="0px" y="0px"
	 viewBox="0 0 64 64" style="enable-background:new 0 0 64 64;" xml:space="preserve">
<path d="M62.1,18.9h-5.8v-17c0-1-0.8-1.9-1.9-1.9H43.2c-1,0-1.9,0.8-1.9,1.9v17h-7.5c0-1.8,0-11.1,0-13.2c0-3.1-2.5-5.6-5.6-5.6
	s-5.6,2.5-5.6,5.6c0,2.1,0,11.5,0,13.2h-4.8c-2-2.4-5.7-3.8-8.5-3.8c-5.2,0-9.4,4.2-9.4,9.4v30.1C0,59.8,4.2,64,9.4,64h45.1
	c1,0,1.9-0.8,1.9-1.9v-5.6h5.8c1,0,1.9-0.8,1.9-1.9V20.8C64,19.7,63.2,18.9,62.1,18.9z M45.1,41.5H47c1,0,1.9-0.8,1.9-1.9
	S48,37.8,47,37.8h-1.9V34H47c1,0,1.9-0.8,1.9-1.9S48,30.2,47,30.2h-1.9v-3.9H47c1,0,1.9-0.8,1.9-1.9S48,22.6,47,22.6h-1.9v-3.8H47
	c1,0,1.9-0.8,1.9-1.9S48,15.1,47,15.1h-1.9v-3.9H47c1,0,1.9-0.8,1.9-1.9S48,7.5,47,7.5h-1.9V3.8h7.5v41.5h-7.5V41.5z M26.4,5.6
	c0-1,0.8-1.9,1.9-1.9s1.9,0.8,1.9,1.9v1.9h-3.8V5.6z M26.4,11.2h3.8c0,1.3,0,21.5,0,22.8h-3.8C26.4,32.8,26.4,12.5,26.4,11.2z
	 M29.4,37.8l-1.1,3.4l-1.1-3.4H29.4z M3.8,24.5c0-3.1,2.5-5.6,5.6-5.6c2.1,0,4.6,1.1,5.6,2.4v25.8c-1.6-1.2-3.5-1.9-5.6-1.9
	c-2.1,0-4.1,0.7-5.6,1.9V24.5z M52.6,60.2H9.4c-3.1,0-5.6-2.5-5.6-5.6S6.3,49,9.4,49c3.1,0,5.6,2.5,5.6,5.6c0,1,0.8,1.9,1.9,1.9
	h35.8V60.2z M60.2,52.8H18.8V22.6h3.9v13.2c0,0.2,0,0.4,0.1,0.6l3.8,11.2c0.3,0.8,1,1.3,1.8,1.3s1.5-0.5,1.8-1.3l3.8-11.2
	c0,0,0,0,0,0c0.1-0.2,0.1-0.4,0.1-0.6V22.6h7.5v24.5c0,1,0.8,1.9,1.9,1.9h11.2c1,0,1.9-0.8,1.9-1.9V22.6h3.9V52.8z"/>
</svg>
