<?xml version="1.0" encoding="utf-8"?>
<!-- Generator: Adobe Illustrator 27.1.1, SVG Export Plug-In . SVG Version: 6.00 Build 0)  -->
<svg version="1.1" id="Layer_1" xmlns="http://www.w3.org/2000/svg" xmlns:xlink="http://www.w3.org/1999/xlink" x="0px" y="0px"
	 viewBox="0 0 64 64" style="enable-background:new 0 0 64 64;" xml:space="preserve">
<path d="M36.5,9.7c0,1.2-1,2.2-2.2,2.2c-1.2,0-2.2-1-2.2-2.2c0-1.2,1-2.2,2.2-2.2C35.5,7.4,36.5,8.4,36.5,9.7z M42.4,11.9
	c1.2,0,2.2-1,2.2-2.2c0-1.2-1-2.2-2.2-2.2c-1.2,0-2.2,1-2.2,2.2C40.2,10.9,41.2,11.9,42.4,11.9z M52.8,9.7c0,1.2-1,2.2-2.2,2.2
	c-1.2,0-2.2-1-2.2-2.2c0-1.2,1-2.2,2.2-2.2C51.8,7.4,52.8,8.4,52.8,9.7z M52.8,0H11.2C5,0,0,5,0,11.2v41.7C0,59,5,64,11.2,64h41.7
	C59,64,64,59,64,52.8V11.2C64,5,59,0,52.8,0z M59.5,52.8c0,3.7-3,6.7-6.7,6.7H11.2c-3.7,0-6.7-3-6.7-6.7V19.3h55.1V52.8z M59.5,14.9
	H4.5v-3.7c0-3.7,3-6.7,6.7-6.7h41.7c3.7,0,6.7,3,6.7,6.7V14.9z"/>
</svg>
