<?xml version="1.0" encoding="utf-8"?>
<!-- Generator: Adobe Illustrator 27.1.1, SVG Export Plug-In . SVG Version: 6.00 Build 0)  -->
<svg version="1.1" id="Layer_1" xmlns="http://www.w3.org/2000/svg" xmlns:xlink="http://www.w3.org/1999/xlink" x="0px" y="0px"
	 viewBox="0 0 64 64" style="enable-background:new 0 0 64 64;" xml:space="preserve">
<path d="M62.1,44.2c-3.8,0-7.4-1.5-10.1-4.1c-2.7-2.7-4.2-6.2-4.2-10c0-1-0.8-1.9-1.9-1.9c-1,0-1.9,0.8-1.9,1.9
	c0,3.8-1.5,7.3-4.2,10c-2.7,2.7-6.3,4.1-10.1,4.1c-1,0-1.9,0.8-1.9,1.9c0,1,0.8,1.9,1.9,1.9c7.8,0,14.2,6.4,14.2,14.2
	c0,1,0.8,1.9,1.9,1.9c1,0,1.9-0.8,1.9-1.9c0-7.8,6.4-14.2,14.2-14.2c1,0,1.9-0.8,1.9-1.9C64,45,63.2,44.2,62.1,44.2z M46,54.2
	c-1.7-3.5-4.6-6.3-8.1-8.1c1.7-0.8,3.3-2,4.7-3.4c1.4-1.4,2.5-3,3.4-4.7c0.9,1.7,2,3.3,3.4,4.7c1.4,1.4,3,2.5,4.7,3.4
	C50.6,47.8,47.8,50.7,46,54.2z M25.7,29.5c-5.5,0-10-4.5-10-9.9c0-1-0.8-1.9-1.9-1.9c-1,0-1.9,0.8-1.9,1.9c0,5.5-4.5,9.9-10,9.9
	c-1,0-1.9,0.8-1.9,1.9c0,1,0.8,1.9,1.9,1.9c5.5,0,10,4.5,10,10c0,1,0.8,1.9,1.9,1.9c1,0,1.9-0.8,1.9-1.9c0-5.5,4.5-10,10-10
	c1,0,1.9-0.8,1.9-1.9C27.5,30.4,26.7,29.5,25.7,29.5z M13.8,36.4c-1.2-2-2.9-3.7-4.9-4.9c2-1.2,3.8-2.9,4.9-4.9
	c1.2,2,2.9,3.7,4.9,4.9C16.7,32.6,15,34.3,13.8,36.4z M28.7,13c4.1,0,7.4,3.3,7.4,7.3c0,1,0.8,1.9,1.9,1.9c1,0,1.9-0.8,1.9-1.9
	c0-4,3.3-7.3,7.4-7.3c1,0,1.9-0.8,1.9-1.9c0-1-0.8-1.9-1.9-1.9c-4.1,0-7.4-3.3-7.4-7.3c0-1-0.8-1.9-1.9-1.9c-1,0-1.9,0.8-1.9,1.9
	c0,4-3.3,7.3-7.4,7.3c-1,0-1.9,0.8-1.9,1.9C26.8,12.1,27.7,13,28.7,13z M37.9,8c0.8,1.2,1.8,2.2,3.1,3c-1.2,0.8-2.3,1.9-3.1,3.1
	c-0.8-1.2-1.8-2.2-3.1-3C36.1,10.3,37.1,9.2,37.9,8z"/>
</svg>
