<?xml version="1.0" encoding="utf-8"?>
<!-- Generator: Adobe Illustrator 27.1.1, SVG Export Plug-In . SVG Version: 6.00 Build 0)  -->
<svg version="1.1" id="Layer_1" xmlns="http://www.w3.org/2000/svg" xmlns:xlink="http://www.w3.org/1999/xlink" x="0px" y="0px"
	 viewBox="0 0 64 64" style="enable-background:new 0 0 64 64;" xml:space="preserve">
<path d="M9.5,11.2c1,0,1.9-0.8,1.9-1.9c0-1-0.8-1.9-1.9-1.9c-1,0-1.9,0.8-1.9,1.9C7.6,10.4,8.5,11.2,9.5,11.2z M18.9,9.4
	c0,1-0.8,1.9-1.9,1.9s-1.9-0.8-1.9-1.9c0-1,0.8-1.9,1.9-1.9S18.9,8.3,18.9,9.4z M24.5,11.2c1,0,1.9-0.8,1.9-1.9c0-1-0.8-1.9-1.9-1.9
	s-1.9,0.8-1.9,1.9C22.6,10.4,23.5,11.2,24.5,11.2z M27,30h10c1,0,1.9,0.8,1.9,1.9v10c0,1-0.8,1.9-1.9,1.9H27c-1,0-1.9-0.8-1.9-1.9
	v-10C25.1,30.8,26,30,27,30z M28.9,40h6.2v-6.2h-6.2V40z M54.5,30h-10c-1,0-1.9,0.8-1.9,1.9v10c0,1,0.8,1.9,1.9,1.9h10
	c1,0,1.9-0.8,1.9-1.9v-10C56.4,30.8,55.5,30,54.5,30z M52.6,40h-6.2v-6.2h6.2V40z M9.5,30h10c1,0,1.9,0.8,1.9,1.9v10
	c0,1-0.8,1.9-1.9,1.9h-10c-1,0-1.9-0.8-1.9-1.9v-10C7.6,30.8,8.5,30,9.5,30z M11.4,40h6.2v-6.2h-6.2V40z M37,47.5H27
	c-1,0-1.9,0.8-1.9,1.9s0.8,1.9,1.9,1.9h10c1,0,1.9-0.8,1.9-1.9S38,47.5,37,47.5z M9.5,47.5h10c1,0,1.9,0.8,1.9,1.9s-0.8,1.9-1.9,1.9
	h-10c-1,0-1.9-0.8-1.9-1.9S8.5,47.5,9.5,47.5z M54.5,47.5h-10c-1,0-1.9,0.8-1.9,1.9s0.8,1.9,1.9,1.9h10c1,0,1.9-0.8,1.9-1.9
	S55.5,47.5,54.5,47.5z M9.5,26.2c-1,0-1.9-0.8-1.9-1.9s0.8-1.9,1.9-1.9h45c1,0,1.9,0.8,1.9,1.9s-0.8,1.9-1.9,1.9H9.5z M57.1,0H6.9
	C3.1,0,0,3.1,0,6.9v50.2C0,60.9,3.1,64,6.9,64h50.2c3.8,0,6.9-3.1,6.9-6.9V6.9C64,3.1,60.9,0,57.1,0z M60.2,6.9V15H33.9V3.8h23.2
	C58.8,3.8,60.2,5.2,60.2,6.9z M3.8,6.9c0-1.7,1.4-3.1,3.1-3.1h23.2V15H3.8V6.9z M60.2,57.1c0,1.7-1.4,3.1-3.1,3.1H6.9
	c-1.7,0-3.1-1.4-3.1-3.1V18.8h56.5V57.1z"/>
</svg>
