<?xml version="1.0" encoding="utf-8"?>
<!-- Generator: Adobe Illustrator 27.1.1, SVG Export Plug-In . SVG Version: 6.00 Build 0)  -->
<svg version="1.1" id="Layer_1" xmlns="http://www.w3.org/2000/svg" xmlns:xlink="http://www.w3.org/1999/xlink" x="0px" y="0px"
	 viewBox="0 0 64 64" style="enable-background:new 0 0 64 64;" xml:space="preserve">
<path d="M24.7,28h-20C2.1,28,0,30.1,0,32.7v26.7C0,61.9,2.1,64,4.7,64h20c2.6,0,4.7-2.1,4.7-4.7v-8.8c0,0,0,0,0,0V32.7
	C29.3,30.1,27.2,28,24.7,28z M25.3,59.3c0,0.4-0.3,0.7-0.7,0.7h-20C4.3,60,4,59.7,4,59.3v-5.2l4.9-4.9c0.3-0.3,0.7-0.3,1,0l1.4,1.4
	c0.9,0.9,2.2,1.4,3.5,1.4c1.3-0.1,2.5-0.7,3.4-1.7l2.7-3.3c0.3-0.4,0.7-0.4,1,0l3.5,4.2V59.3z M25.3,45l-0.4-0.5
	c-1.8-2.1-5.4-2.1-7.2,0L15,47.8C14.8,48,14.6,48,14.5,48l0,0c-0.1,0-0.3,0-0.5-0.2l-1.4-1.4c-1.8-1.8-4.8-1.8-6.6,0l-2,2V32.7
	C4,32.3,4.3,32,4.7,32h20c0.4,0,0.7,0.3,0.7,0.7V45z M4.7,24h54.7c2.6,0,4.7-2.1,4.7-4.7V4.7C64,2.1,61.9,0,59.3,0H4.7
	C2.1,0,0,2.1,0,4.7v14.7C0,21.9,2.1,24,4.7,24z M4,4.7C4,4.3,4.3,4,4.7,4h54.7C59.7,4,60,4.3,60,4.7v14.7c0,0.4-0.3,0.7-0.7,0.7H4.7
	C4.3,20,4,19.7,4,19.3V4.7z M36.7,32H62c1.1,0,2-0.9,2-2s-0.9-2-2-2H36.7c-1.1,0-2,0.9-2,2S35.6,32,36.7,32z M62,40H36.7
	c-1.1,0-2-0.9-2-2s0.9-2,2-2H62c1.1,0,2,0.9,2,2S63.1,40,62,40z M36.7,48H62c1.1,0,2-0.9,2-2s-0.9-2-2-2H36.7c-1.1,0-2,0.9-2,2
	S35.6,48,36.7,48z M62,56H36.7c-1.1,0-2-0.9-2-2s0.9-2,2-2H62c1.1,0,2,0.9,2,2S63.1,56,62,56z M36.7,64H62c1.1,0,2-0.9,2-2
	s-0.9-2-2-2H36.7c-1.1,0-2,0.9-2,2S35.6,64,36.7,64z"/>
</svg>
