<?xml version="1.0" encoding="utf-8"?>
<!-- Generator: Adobe Illustrator 27.1.1, SVG Export Plug-In . SVG Version: 6.00 Build 0)  -->
<svg version="1.1" id="Layer_1" xmlns="http://www.w3.org/2000/svg" xmlns:xlink="http://www.w3.org/1999/xlink" x="0px" y="0px"
	 viewBox="0 0 64 64" style="enable-background:new 0 0 64 64;" xml:space="preserve">
<style type="text/css">
	.st0{fill:#0B0B0B;}
</style>
<path class="st0" d="M34.3,22.6c0.6,1.9,0.8,4,0.4,5.9l-0.8,9.6c0,0.9-0.2,1.8-0.6,2.6c-0.1,0.3-0.3,0.5-0.6,0.7
	c-0.2,0.2-0.5,0.2-0.8,0.2c-0.3,0-0.6-0.1-0.8-0.2s-0.5-0.4-0.6-0.6C30.2,39.9,30,39,29.9,38l-0.6-9.3c-0.1-1.9-0.7-4.9,0.6-6.4
	C31,21.1,33.5,20.9,34.3,22.6z M33.8,45.7c-0.3-0.3-0.6-0.4-1-0.6c-0.4-0.1-0.8-0.1-1.1-0.1c-0.7,0.1-1.4,0.5-1.8,1
	c-0.5,0.6-0.7,1.3-0.6,2c0,0.7,0.4,1.4,0.9,1.9c0.5,0.5,1.2,0.8,1.9,0.8c0.4,0,0.8-0.1,1.1-0.2c0.4-0.2,0.7-0.4,0.9-0.7
	c0.3-0.3,0.5-0.6,0.6-1c0.1-0.4,0.2-0.8,0.2-1.2c0-0.4-0.1-0.8-0.3-1.1C34.4,46.3,34.1,46,33.8,45.7z M64,52.9
	c0,1.2-0.3,2.5-0.9,3.5c-0.6,1.1-1.4,2-2.5,2.6c-1,0.6-2.2,1-3.4,1H6.7c-1.2,0-2.3-0.4-3.4-1c-1-0.6-1.9-1.5-2.5-2.6
	C0.3,55.4,0,54.1,0,52.9c0-1.2,0.3-2.4,0.9-3.5L26.2,7.3c0.6-1,1.5-1.9,2.5-2.5C29.7,4.3,30.8,4,32,4c1.2,0,2.3,0.3,3.3,0.9
	c1,0.6,1.9,1.4,2.5,2.5l25.3,42C63.7,50.4,64,51.6,64,52.9z M59.5,53c0-0.4-0.1-0.8-0.3-1.2c0,0-25.3-42-25.3-42
	c-0.2-0.3-0.5-0.6-0.8-0.8c-0.3-0.2-0.7-0.3-1.1-0.3S31.2,8.8,30.9,9c-0.3,0.2-0.6,0.5-0.8,0.8L4.8,51.8c-0.2,0.4-0.3,0.8-0.3,1.2
	s0.1,0.8,0.3,1.2C5,54.5,5.3,54.8,5.6,55s0.7,0.3,1.1,0.3h50.5c0.4,0,0.8-0.1,1.1-0.3c0.3-0.2,0.6-0.5,0.8-0.9
	C59.4,53.8,59.5,53.4,59.5,53z"/>
</svg>
