<?xml version="1.0" encoding="utf-8"?>
<!-- Generator: Adobe Illustrator 27.1.1, SVG Export Plug-In . SVG Version: 6.00 Build 0)  -->
<svg version="1.1" id="Layer_1" xmlns="http://www.w3.org/2000/svg" xmlns:xlink="http://www.w3.org/1999/xlink" x="0px" y="0px"
	 viewBox="0 0 64 64" style="enable-background:new 0 0 64 64;" xml:space="preserve">
<path d="M6,29.3h17.3c3.3,0,6-2.7,6-6V6c0-3.3-2.7-6-6-6H6C2.7,0,0,2.7,0,6v17.3C0,26.6,2.7,29.3,6,29.3z M4,9.3V6c0-1.1,0.9-2,2-2
	h17.3c1.1,0,2,0.9,2,2v3.3H4z M4,13.3h21.3v10c0,1.1-0.9,2-2,2H6c-1.1,0-2-0.9-2-2V13.3z M58,0H40.7c-3.3,0-6,2.7-6,6v17.3
	c0,3.3,2.7,6,6,6H58c3.3,0,6-2.7,6-6V6C64,2.7,61.3,0,58,0z M60,23.3c0,1.1-0.9,2-2,2H40.7c-1.1,0-2-0.9-2-2v-10H60V23.3z M60,9.3
	H38.7V6c0-1.1,0.9-2,2-2H58c1.1,0,2,0.9,2,2V9.3z M6,29.3h17.3c3.3,0,6-2.7,6-6V6c0-3.3-2.7-6-6-6H6C2.7,0,0,2.7,0,6v17.3
	C0,26.6,2.7,29.3,6,29.3z M4,9.3V6c0-1.1,0.9-2,2-2h17.3c1.1,0,2,0.9,2,2v3.3H4z M4,13.3h21.3v10c0,1.1-0.9,2-2,2H6
	c-1.1,0-2-0.9-2-2V13.3z M58,0H40.7c-3.3,0-6,2.7-6,6v17.3c0,3.3,2.7,6,6,6H58c3.3,0,6-2.7,6-6V6C64,2.7,61.3,0,58,0z M60,23.3
	c0,1.1-0.9,2-2,2H40.7c-1.1,0-2-0.9-2-2v-10H60V23.3z M60,9.3H38.7V6c0-1.1,0.9-2,2-2H58c1.1,0,2,0.9,2,2V9.3z M6,64h17.3
	c3.3,0,6-2.7,6-6V40.7c0-3.3-2.7-6-6-6H6c-3.3,0-6,2.7-6,6V58C0,61.3,2.7,64,6,64z M58,34.7H40.7c-3.3,0-6,2.7-6,6V58
	c0,3.3,2.7,6,6,6H58c3.3,0,6-2.7,6-6V40.7C64,37.4,61.3,34.7,58,34.7z M4,48h21.3v10c0,1.1-0.9,2-2,2H6c-1.1,0-2-0.9-2-2V48z M60,58
	c0,1.1-0.9,2-2,2H40.7c-1.1,0-2-0.9-2-2V48H60V58z M60,44H38.7v-3.3c0-1.1,0.9-2,2-2H58c1.1,0,2,0.9,2,2V44z M25.3,44H4v-3.3
	c0-1.1,0.9-2,2-2h17.3c1.1,0,2,0.9,2,2V44z"/>
</svg>
